<svg id="Layer_1" data-name="Layer 1" xmlns="http://www.w3.org/2000/svg" viewBox="0 0 1717.92 391.35"><defs><style>.cls-1{fill:#fff;}</style></defs><path class="cls-1" d="M774,126.6c-.54,3.07-1.53,6.13-1.55,9.2-.15,18.38-.11,36.75,0,55.13,0,2.83.56,5.65.69,8.48.3,6.33-.64,5.68-5.62,6.53-4.61.78-9.48.42-14.21.08-3.31-.24-4.19-2.82-4.18-5.91.07-12.37.13-24.75,0-37.12-.15-15.83-.47-31.66-.73-47.48-.24-14.08-.46-28.16-.76-42.23-.18-8.33-.37-16.66-.79-25-.22-4.29-.9-8.55-1.45-12.82-.46-3.67,1.83-6.67,5.82-7.08s7.9-.47,11.84-.81c5-.43,10-1.21,15.08-1.43,5.87-.24,8.42,2.29,9.28,8.06s2.09,11.56,3,17.36c.88,6,1.44,11.94,2.3,17.9.93,6.42,2,12.81,3.07,19.21a15.86,15.86,0,0,1,.61,3.2c-.19,3.49,1.07,5.72,4.75,6.14,5-2.86,3.76-8.09,4.15-12.33,1-10.24,1-20.55,1.7-30.82.51-7.61,1.44-15.19,2.21-22.78.42-4.11,2.38-6,6.48-6,9.14,0,18.29.16,27.43-.1,3.65-.1,5.33,1.11,6.53,5.51a7.32,7.32,0,0,1,0,1.87c.25,20.7.54,41.4.74,62.1.29,29.58.49,59.16.79,88.73.05,4.58.62,9.15.69,13.73.08,5.48-1.94,7.4-7.29,7.42-3,0-6-.18-9,0-3.4.26-5.56-.66-5.74-4.42-.07-1.35-.43-2.68-.43-4v-63a35.18,35.18,0,0,0-.84-8.43c-.38-1.54-2-2.77-3-4.15-1.2,1.1-3.17,2-3.45,3.33a120.73,120.73,0,0,0-1.74,12.84q-1.89,18.18-3.69,36.36c-.37,3.82-.5,7.65-.83,11.47-.46,5.15-.82,10.32-1.59,15.43-.54,3.66-3.91,4.3-6.76,4.52a128.15,128.15,0,0,1-13.86.07c-3.35-.1-5.75-2.85-6.29-6.6-1.71-11.89-4.22-23.72-5-35.67a191.62,191.62,0,0,0-4.06-28.8,79.23,79.23,0,0,0-2.61-7.94Z" transform="translate(-25 -25)"/><path class="cls-1" d="M887.88,151.51v44.1a11.32,11.32,0,0,0,.47,2.52c1.14,4.75-.93,7.52-5.89,8.07a69.83,69.83,0,0,0-7.59,1.26c-4.77,1.1-8.64-1.8-8.76-6.76-.27-11.2-.46-22.4-.76-33.6-.47-17.4-1.06-34.8-1.47-52.21-.36-14.82-.51-29.65-.78-44.48-.22-12.07-.53-24.15-.73-36.22-.08-4.91.84-5.5,5.84-5.83,8.61-.58,17.19-1.6,25.79-2.15,4.81-.3,6.48,1.87,8.25,6.56,3.61,9.6,3.18,19.8,5.09,29.63,1.84,9.48,3.38,19,5.36,28.46.51,2.45,1.21,6.17,4.68,5.61,3.28-.54,3.18-4.17,3.46-6.9.8-7.72,1.51-15.45,2.22-23.18.12-1.24,0-2.5,0-3.75.33-7.33.6-14.67,1.06-22a65.46,65.46,0,0,1,1.24-8.71,6.88,6.88,0,0,1,7.08-5.77c6.12-.05,12.25,0,18.37,0,3.27,0,6.55-.13,9.81,0,3.88.2,5.26,1.69,5.17,5.66-.1,4.82-.68,9.65-.64,14.47,0,5.18.57,10.37.93,15.55.09,1.35.47,2.68.48,4,0,15.13-.06,30.25,0,45.38.05,6.57.71,13.15.67,19.72-.11,16.71-.51,33.41-.66,50.11,0,4.2.62,8.4.65,12.6a40.4,40.4,0,0,1-.93,7.67c-.55,2.9-2.11,4.45-5.44,4.13a61.07,61.07,0,0,0-10.12,0c-3.19.23-4.78-1.5-5.09-4.15a82,82,0,0,1-.11-9.79c0-7.12.08-14.25,0-21.37q-.28-20.74-.78-41.48c-.06-2.28.45-5.27-3.08-5.73-2.54-.34-5.61,2.77-5.85,5.93-.81,10.6-1.33,21.21-2.33,31.79-1,10.14-2.41,20.25-3.61,30.37-.32,2.69-.45,5.4-.85,8.08-.66,4.41-2.42,6.05-7,6.25a77.3,77.3,0,0,1-12.73-.13,6,6,0,0,1-4.08-3.7c-2-10.32-3.65-20.72-5.41-31.09-1-5.79-2.09-11.56-3-17.37s-1.49-11.68-2.29-17.52a72.46,72.46,0,0,0-1.59-9c-.35-1.33-1.66-2.4-2.53-3.6-.87,1.32-2.46,2.62-2.5,4C887.76,135.05,887.88,143.26,887.88,151.51Z" transform="translate(-25 -25)"/><path class="cls-1" d="M1076.16,179c-1.68-12.5-3.5-25.65-5.18-38.82-.68-5.38-1-10.8-1.59-16.19-1-8.92-2.18-17.83-2.86-26.77-.44-5.72.24-11.52-.2-17.24q-1.49-18.94-3.68-37.85c-.7-6,3-10.82,9.09-10.75,6.93.09,13.79,0,20.55-2,4.23-1.28,10,2.33,10.89,6.53q3.46,16.49,6.71,33c2.33,12,4.37,24.06,6.82,36,1.51,7.4,3.54,14.69,5.35,22a5.83,5.83,0,0,0,.86,2.39c.87,1,2,2.28,3.08,2.33.82,0,2.38-1.62,2.46-2.61a157.12,157.12,0,0,0,.67-17.76c-.23-5.75-1.31-11.47-2-17.2-1-8.92-2.06-17.84-2.93-26.77-.45-4.68-.43-9.41-.87-14.09-.51-5.37-1.35-10.71-1.93-16.08-.25-2.34-.68-4.85-.08-7a6.15,6.15,0,0,1,3.77-3.81,60.74,60.74,0,0,1,11.81-.89c4.5,0,5.66,1.93,5.91,5.8.46,6.94.29,13.92.88,20.84.67,7.83,2,15.6,2.82,23.41.67,6.13,1,12.3,1.62,18.44,1,10.55,2.14,21.09,2.91,31.65.55,7.43.39,14.91.87,22.35.85,13.06,2,26.1,2.9,39.16a74.15,74.15,0,0,1,0,10.11c-.18,2.86-2,4.3-4.89,4.47q-11.48.68-22.94,1.49c-7.62.54-11.19-2.44-12.63-10.08-1.68-8.86-3.78-17.64-5.48-26.5-1.8-9.37-3.09-18.84-5.08-28.17-1.59-7.48-3.8-14.84-5.92-22.2a100.79,100.79,0,0,0-3.85-10.64,3.61,3.61,0,0,0-2.39-2c-.57-.08-1.78,1.25-1.94,2.09a22.83,22.83,0,0,0-.51,6.49c.48,5.25,1.38,10.46,1.91,15.71,1.07,10.41,2,20.84,3,31.27.32,3.45.49,6.9.8,10.35.73,8.1,1,16.29,2.4,24.27,2.27,12.56-3.19,12-11.06,13.12-.85.12-1.75-.07-2.62,0-5.44.61-7.24-3.25-7.4-7C1076,193.16,1076.16,186.45,1076.16,179Z" transform="translate(-25 -25)"/><path class="cls-1" d="M1586.23,116.84c1.19,8.14,2.48,16.27,3.53,24.43,1,7.45,2.1,14.91,2.35,22.39.35,10.51.86,21,3,31.27,1.48,7,.17,8.88-7,10.58a56.31,56.31,0,0,1-6.45,1.33c-5.12.61-7.57-1.94-8.14-9-1.13-13.91-1.93-27.85-3.09-41.76-.77-9.19-2-18.35-2.9-27.53-.62-6.26-.93-12.56-1.58-18.82-.85-8.06-1.89-16.11-2.85-24.16-.29-2.45-.64-4.89-.83-7.34-1-13-2.16-26.09-3-39.15-.35-5.49.71-6.58,6-6.19,6.42.46,12.41-1.18,18.53-2.55a27.38,27.38,0,0,1,9.25-.35c5.93.76,6.92,5.89,8,10.47,1.26,5.22,2.13,10.54,3.1,15.83,1.28,7.09,2.31,14.23,3.79,21.28,1.73,8.23,4,16.36,5.71,24.6,1.34,6.47,2,13.06,3.3,19.55a30,30,0,0,0,2.77,7.91,4.82,4.82,0,0,0,3.64,2c.84,0,2.4-1.65,2.45-2.62a122.31,122.31,0,0,0,0-13.54c-.27-4.92-.85-9.82-1.42-14.71-1.18-10.13-2.53-20.24-3.64-30.37-.69-6.26-1-12.55-1.62-18.82-.34-3.66-1.19-7.31-1.23-11a38.66,38.66,0,0,1,1.17-10.87c.44-1.53,2.87-3,4.67-3.52,2.55-.77,5.37-.56,8-.94,4.17-.58,6.6,1.9,7.44,5.23,1.76,6.86,3.4,13.79,1.85,21.08-.54,2.54.4,5.37.56,8.07.78,13,1.44,26,2.3,38.93.62,9.49,1.44,19,2.23,28.43,1.22,14.76,2.37,29.52,3.79,44.26.68,6.94,2,13.83,2.89,20.75.81,6.21-3,9.75-8.19,9.7-8.14-.08-16.29.83-24.43,1.33-2.92.18-6-2.64-7-6.79-3-11.93-6.3-23.81-8.89-35.84-2.67-12.41-4.53-25-7-37.47a110.8,110.8,0,0,0-3.84-13.72,6.6,6.6,0,0,0-3.11-3.35c-1.81-.9-3.49-.42-3.49,2.17v8.62Z" transform="translate(-25 -25)"/><path class="cls-1" d="M458.53,179.51V159.26c.23-28.2.65-56.4.66-84.6,0-10.65-1.11-21.3-1.31-32a24.73,24.73,0,0,1,2.05-9.93c.64-1.48,3.38-2.81,5.21-2.87,5.19-.17,10.4.51,15.6.54a102.39,102.39,0,0,0,11.48-.71A37.59,37.59,0,0,1,514,34.12a25.87,25.87,0,0,1,13.55,19.07c1.07,6.2,1,12.36,1,18.67-.1,23,.49,46.06,1.43,69.06a105.73,105.73,0,0,1-.71,20.2c-.73,4.92,0,10.18.77,15.17,1,6.38.36,11.83-3.59,17.4s-7.9,10.44-13.59,13.75a22,22,0,0,1-9.59,3c-5.8.29-11.64-.55-17.47-.54-6.45,0-12.9.51-19.35.67-4.64.11-6.59-1.47-7.09-6s-.64-8.88-.78-13.33C458.44,187.3,458.53,183.42,458.53,179.51Zm27-10.42h.75c0,4.75-.25,9.52.12,14.24.15,1.83,1.27,4.35,2.72,5.15,3.71,2.05,10.19-.75,11.59-4.85a31.1,31.1,0,0,0,2-9.62c.08-7.7-.49-15.4-.62-23.11-.31-18.82-.59-37.65-.73-56.47,0-5,.66-9.91.65-14.86,0-5.32-.41-10.65-.7-16-.62-11.44-1.4-11.51-11.78-11.34-3.46.06-5.14,1.9-5,5.27.37,10.8.87,21.6,1,32.41.18,12.52.05,25,.05,37.56Z" transform="translate(-25 -25)"/><path class="cls-1" d="M1479.7,155.56c0-15.07.47-30.17-.15-45.22-.46-11.16-2.81-22.23-3.39-33.39-.44-8.19-.86-16.43,1.49-24.71,2-7.11,4.4-13.55,10.28-18.21A36.79,36.79,0,0,1,1507,26.17a46.86,46.86,0,0,1,26.22,4.64c8,4,13.49,10.41,13.93,19.79.52,10.94.49,21.9.83,32.85.42,13.28,1.17,26.55,1.44,39.84.42,20.2.93,40.41.48,60.6-.1,4.33-3.79,8.83-6.5,12.78-5.56,8.1-14.34,9.93-23.31,10.08a128.93,128.93,0,0,1-22.54-1.56,17.29,17.29,0,0,1-12.24-9.23,35.13,35.13,0,0,1-3.93-13.55c-.6-8.91-.18-17.9-.18-26.85ZM1521,67.63h-.75V57.51c0-7.28,0-7.28-7.06-9-4.71-1.16-8,1.29-7.93,6.14q.33,35.37.75,70.72.3,24.87.77,49.73a28.36,28.36,0,0,0,.89,8,5.85,5.85,0,0,0,3.8,3.25c2.06.42,4.36-.24,6.55-.48,4.13-.45,5.3-1.7,5.21-6q-.29-14.17-.74-28.35c-.45-13.66-1.2-27.3-1.43-41C1520.76,96.28,1521,82,1521,67.63Z" transform="translate(-25 -25)"/><path class="cls-1" d="M670.54,163.92c-.56-13.27-1.34-26.53-1.63-39.8-.28-12.8,0-25.61-.09-38.42-.1-10.44-.12-20.91-.83-31.32-.59-8.79,3.19-15.23,9.71-20.07,7.48-5.54,16.24-9.25,25.51-8.71,10.23.6,20.34,3.13,28.12,10.85a16.8,16.8,0,0,1,5,11.54c.27,6.39,0,12.8.1,19.19.13,6.7.56,13.39.7,20.09.31,14.82.5,29.64.78,44.45q.33,16.42.76,32.84c.15,5.72.44,11.43.73,17.15.55,10.83-8.5,22.32-19.16,23.59a155.35,155.35,0,0,1-22.91,1.44c-11.34-.36-23.43-6.56-25.85-19.78-1.37-7.51-1-15.33-1.47-23Zm41.07-99.28h-.53c-.32-4.32-.49-8.65-1.09-12.93a4.19,4.19,0,0,0-2.59-2.93,33.9,33.9,0,0,0-9,0c-1,.14-2.34,1.92-2.45,3-.5,5.17-.81,10.38-.81,15.58s.53,10.14.68,15.22c.3,10.69.53,21.38.76,32.08.26,12.06.49,24.13.76,36.2q.33,14.53.76,29.08c.15,4.69,2,7.2,5.57,8s6.47-1.18,8.09-5.67a20.12,20.12,0,0,0,1.27-6.78q-.21-25.78-.71-51.56c-.15-8.45-.61-16.89-.7-25.34C711.51,87.28,711.61,76,711.61,64.64Z" transform="translate(-25 -25)"/><path class="cls-1" d="M1018.72,168.51c1.14-12.91,2.33-25.82,3.39-38.74.41-5.06.5-10.15.79-15.22q1.11-19.65,2.25-39.29.76-13.55,1.5-27.08c.25-4.7.48-9.4.75-14.1.22-3.62,2.12-5.61,6.78-5.58A116.54,116.54,0,0,1,1050.33,30c3.08.46,4.68,4.86,4.05,8.94A119.58,119.58,0,0,0,1053,51.72c-.41,8.82-.37,17.66-.85,26.47-.54,9.86-1.53,19.69-2.19,29.55-.59,8.89-1.11,17.79-1.49,26.69-.59,14-.92,28-1.55,42.07-.72,15.8-9.74,25.38-20.75,29.16a31.24,31.24,0,0,1-18.77.64c-2.48-.66-5.13-.58-7.69-.92-16.76-2.27-23.13-14-22.52-27.55.43-9.53,1-19,1.49-28.57.32-7.07.51-14.15.76-21.22.5-14,.94-28,1.52-42.07.39-9.16.87-18.31,1.52-27.45.59-8.35,1.25-16.71,2.3-25,.57-4.62,3.25-7.08,7.87-7.29a100,100,0,0,1,14.06.7c2.82.28,4.38,2.2,4.21,5.1-.69,12.1-1.49,24.2-2.16,36.3-.18,3.24,0,6.5-.08,9.75-.46,12.4-.87,24.8-1.53,37.19-.57,10.73-1.53,21.44-2.19,32.17-.59,9.64-1.15,19.29-1.43,29a17.32,17.32,0,0,0,1.64,7.43c.9,2,2.61,3.24,5.44,2.28,7.13-2.41,8.26-3.78,8.57-12.33.07-1.75,0-3.5,0-5.25Z" transform="translate(-25 -25)"/><path class="cls-1" d="M632.1,162.51V145.26c0-4.6,2.77-7.33,7.3-7.34h10.5c6.64,0,9.84,2.67,9.86,9.4q0,19.6-.81,39.22c-.11,2.5-1.59,5.22-3.14,7.32-6.43,8.71-14.41,14.46-26,13.91-9.61-.44-19.1-.55-28.24-4.4a15.64,15.64,0,0,1-9.83-11.89c-.79-3.7-.69-7.62-.85-11.44-.54-12.9-1-25.81-1.54-38.7-.41-9.16-1.25-18.3-1.43-27.46-.41-21.32-.61-42.64-.77-64,0-7.53,7.1-16.84,14.09-19.64,7.84-3.14,15.65-5.2,24.3-5.09,7.8.11,13.85,3.38,20,7.23,5,3.09,7.52,8,10.24,12.78a11.37,11.37,0,0,1,1,5.36c.08,11,.05,22,0,33,0,6.34-2.27,8.51-8.64,8.64-3.57.07-7.13.44-10.71.59-3,.12-5.19-2.35-5.37-6.24-.32-6.7-.39-13.41-.82-20.1-.28-4.28-1-8.53-1.59-12.78-.39-2.75-2.07-4.23-4.78-4.88-6.53-1.57-10.8,1.63-10.83,8.31,0,7-.1,14,0,21,.12,6.57.59,13.14.69,19.72.13,8-.15,16,.08,24,.33,12,1,24,1.46,36.08.25,6.07.45,12.15.77,18.22a42.68,42.68,0,0,0,.89,8,3.93,3.93,0,0,0,3,2.38c2.68.11,5.65.19,8-.87,1.54-.7,3-3.33,3.07-5.19C632.34,174.51,632.1,168.51,632.1,162.51Z" transform="translate(-25 -25)"/><path class="cls-1" d="M1227.67,74.76V95.39c0,15.27-.19,30.54.06,45.8q.33,18.81,1.53,37.58c.41,6.54,3.48,8.84,7,8.63,5.51-.33,8.67-3.6,8.68-9.32V145.45c0-4.77,2.17-7.32,6.93-7.53s9.75-.15,14.62,0c3.21.09,5.37,2.78,5.41,7.09.12,13.28.18,26.56,0,39.83-.08,4.89-2.61,8.82-5.75,12.7-6.49,8-14.92,10.25-24.6,10.13-7.42-.09-14.76,0-22-2.19-8-2.44-15.77-10.32-15.84-19.45-.08-10-.43-19.91-.72-29.85-.47-16.16-.92-32.32-1.54-48.46-.18-4.54-1.14-9-1.34-13.58-.14-3,.55-6.13.64-9.21a72.38,72.38,0,0,0-.11-11.31,99.61,99.61,0,0,1,1-30.63,11.36,11.36,0,0,1,3.08-5.21,38.63,38.63,0,0,1,25.41-12.27c5.42-.43,11.39-1.13,16.29.61,11,3.91,20.47,10.39,23.25,22.9.85,3.83.58,7.9.79,11.87s.46,8.16.55,12.25c.11,4.61.24,9.24,0,13.84-.15,3.47-3.06,4.79-5.83,5a131.53,131.53,0,0,1-15.76.16c-3.39-.14-4.31-3-4.47-5.75-.41-6.81-.43-13.65-.85-20.47a65.56,65.56,0,0,0-1.6-12c-1.08-4.28-7.3-7.22-11.43-5.8-2,.71-3.55,1.88-3.49,4.59C1227.79,60,1227.67,67.39,1227.67,74.76Z" transform="translate(-25 -25)"/><path class="cls-1" d="M1662.38,177.67c.64-9.35,1.18-18.25,1.88-27.14.34-4.25,3.1-6.59,7.35-6.66,5.45-.1,10.74-.05,15.5,3.5,3.85,2.87,4.89,4.8,4,9.52-.68,3.74-1.07,7.54-1.39,11.34-.37,4.31-.52,8.65-.78,13-.14,2.18.67,3.55,2.94,4,2,.38,4.12,1.55,6,1.26,3.36-.5,5.82-2,6.24-6.36.54-5.54,2.88-10.9,3.43-16.44,1.08-10.79-3.52-20.19-8.91-29-5.84-9.61-12.45-18.75-18.36-28.31-6.33-10.23-11.36-21-10.08-33.55.7-6.83,1.73-13.62,2.62-20.43a6.31,6.31,0,0,0,.32-1.43c-.94-9.61,5.2-15.25,12.08-19.74,7.17-4.68,15.28-6.31,24.16-5.27a49.37,49.37,0,0,1,18.82,5.65c6.48,3.68,12.4,8.19,14.06,16.09a39,39,0,0,1,.62,8.82c-.12,6.83-.53,13.65-.68,20.48-.15,6.33-2.89,9.49-9.28,9.92a94.83,94.83,0,0,1-11.68,0c-4.4-.26-6.65-2.83-6.71-8.44-.06-4.77.87-9.54,1.15-14.33a67.85,67.85,0,0,0,.09-11.58c-.35-3.08-2.93-4.92-5.94-5.19-3.5-.31-8.33,2.75-8.85,5.43-2.21,11.42-3.67,22.9-.61,34.4.54,2,2,3.85,3.15,5.69,2.76,4.37,5.6,8.69,8.41,13,5.44,8.41,11.6,16.46,16.14,25.34a45.78,45.78,0,0,1,4.52,30c-.93,4.82-.66,9.88-.91,14.83-.4,7.89-1.27,15.56-6.73,22-3.67,4.32-8,7.81-13.58,8a206,206,0,0,1-28.75-.81c-8.38-1-14.86-6.56-18.71-13.68C1661.86,187.6,1662.79,182.06,1662.38,177.67Z" transform="translate(-25 -25)"/><path class="cls-1" d="M1310.35,26.43c3.31-.36,6.62-.66,9.92-1.07,5.25-.64,10.67,4.2,11,9.45,1,18.42,1.7,36.83,6.42,54.89,1.87,7.17,1.73,14.88,2.55,22.34.72,6.47,1.44,13,2.28,19.41.91,7.05,2,14.08,3,21.12,1.5,10.69,3.09,21.37,4.42,32.07a118.82,118.82,0,0,1,.79,13.72c.06,4.87-2.23,7.19-7,7a62.74,62.74,0,0,1-11.73-1.55c-3.94-1-5.67-4.36-6-8.05-.74-7.88-1.07-15.79-1.59-23.69-.22-3.21-.43-6.41-.78-9.6s-5.63-5.51-11.77-5c-4,.31-5.35,1.51-5.48,5.41-.08,2.45-.54,4.89-.7,7.34-.65,9.81-1.14,19.63-2,29.42-.14,1.61-1.35,4-2.67,4.5a50.71,50.71,0,0,1-12.22,3.37c-3.4.44-5.82-2.35-5.62-5.78.64-11.48,1.47-22.95,2.19-34.42q.45-7.23.76-14.48c.29-7.32.3-14.66.81-22,.81-11.81,2-23.6,2.92-35.41.32-3.94.56-7.89.77-11.85.77-14.6,1.45-29.2,2.32-43.8a40.87,40.87,0,0,1,1.6-8.64c1.23-4.25,5.12-4.52,8.61-5a56.39,56.39,0,0,1,7.12-.06Zm2.38,51.93-1.88.14c-.72,2.13-1.92,4.22-2.08,6.39-.49,6.8-.8,13.63-.78,20.45,0,7.94.61,15.87.61,23.81,0,3.3,1.1,4.81,4.35,5,5.45.29,6.86-.21,6.85-4.17,0-7.41-.39-14.85-1.13-22.22s-2-14.55-3.31-21.77C1314.89,83.36,1313.63,80.89,1312.73,78.36Z" transform="translate(-25 -25)"/><path class="cls-1" d="M410.53,164.66v14.62c.06,5.86,1.5,7.18,7.16,7.3,5.83.14,11.71,0,17.46.87,4.72.68,8.46,2.86,8.37,8.9,0,1.12-.08,2.25,0,3.37.59,7.2-2.36,9.14-9.32,9.19-11.15.07-22.3-.88-33.46-1.32a105.36,105.36,0,0,0-11.24,0c-5.31.37-7.18-4.1-6.68-8.41.22-1.82.58-3.64.66-5.47.79-16.6,1.43-33.2,2.32-49.79.56-10.49,1.56-21,2.17-31.43.43-7.44.59-14.9.77-22.35.3-12,.47-23.9.78-35.85a140.83,140.83,0,0,1,.82-15.22c1.27-9.28,4.25-10.76,13.65-9.91,3.91.35,7.8,1,11.72,1.33,10.34.83,20.69,1.49,31,2.32,2.73.22,3.75,2.16,3.5,4.7-.42,4.14-.79,8.31-1.53,12.4-.65,3.51-2.78,5.77-6.69,5.34s-7.76-1.14-11.65-1.6a34.39,34.39,0,0,0-7.72-.51c-4.36.5-5.07,1.81-5.42,6.55-.64,8.48-1.63,16.93-2.13,25.42a40.57,40.57,0,0,0,.9,10.31c.66,3.31,5.85,5.13,10.16,4.63a74,74,0,0,1,13.39-.4c4.16.28,6.69,3.72,6.93,8.55.14,2.87.11,5.75,0,8.62-.15,4.69-4.95,7.8-9.57,7.3-6.17-.67-12.44-.45-18.67-.68-4.26-.15-5.12,3-5.42,6-1.16,11.69-2.05,23.4-3.05,35.1Z" transform="translate(-25 -25)"/><path class="cls-1" d="M1386.29,26.1c5.75,0,11.5-.09,17.24,0,6,.13,11.91.82,17.84.58,3.07-.13,6-1.17,8.81.9a9.61,9.61,0,0,1,2,1.65c1.87,2.49,1.29,15.09-.58,17.62-2.12,2.86-5.25,2.92-8.26,3.18a51.56,51.56,0,0,1-7.86,0c-2.74-.18-4.15,1.18-4.62,3.6a42.37,42.37,0,0,0-.86,7c-.32,11.44-.54,22.89-.78,34.33-.26,12.19-.55,24.39-.75,36.58-.28,17.32-.21,34.65-.92,51.94a115.78,115.78,0,0,0,.83,17.16c.43,4-3.62,7.39-7.66,7q-7.9-.76-15.8-1.48c-3.5-.3-5.17-2.34-5-5.95.55-10.14,1.14-20.28,1.48-30.42q.58-17.35.76-34.71.46-39.84.76-79.68c0-4.25-1.33-4.75-5.45-4.57a56.85,56.85,0,0,1-14.77-1.25c-4-.93-3.86-5.45-4.3-8.61-.41-2.9.37-6.08,1.12-9,1.06-4.16,3.47-5.81,7.65-5.83C1373.55,26.09,1379.92,26.1,1386.29,26.1Z" transform="translate(-25 -25)"/><path class="cls-1" d="M356.38,28.88c4.06.31,8.14.55,12.2.94,3,.28,4,2.61,3.74,6.42-.28,4.12-.06,8.28.07,12.42.07,2.13.58,4.24.6,6.37.3,22.69.71,45.39.73,68.09,0,20.19-.34,40.39-.76,60.58-.14,6.5-1.42,12.93.65,19.42.91,2.87-1.84,5.71-6.2,6.42a83.66,83.66,0,0,1-14.23,1.09c-5,0-7.74-3.7-7.86-9.83-.05-2.57.62-5.15.61-7.72,0-3-.61-5.9-.63-8.85-.08-11.37.05-22.74-.05-34.11-.19-23-.56-45.89-.69-68.84,0-7,.65-14,.65-20.92s-.55-14.15-.66-21.23C344.42,31,346.48,29,354.49,29h1.87Z" transform="translate(-25 -25)"/><path class="cls-1" d="M1193.92,42.72c0,13.24-.09,26.48.07,39.72,0,3.16,1.4,6.31,1.33,9.45-.16,6.58-.87,13.15-1.34,19.73-.07,1-.06,2-.06,3,0,21.5-.06,43,0,64.5,0,6,.66,11.94.67,17.91,0,8-2.31,11-10.37,10.63-3.61-.19-7.25-.15-10.87,0-3.44.15-4.71-1.93-4.91-4.74-.42-5.94-.71-11.9-.78-17.85-.31-25.08-.49-50.16-.8-75.24-.11-8.45,0-17-.85-25.35s0-16.69.66-25.08c.72-8.62-.34-17.39-.52-26.09-.1-5.24,2.54-8,7.83-7.91,5,.05,9.93.65,14.9.63,3.48,0,4.22,1.91,4.25,4.69v12Z" transform="translate(-25 -25)"/><path class="cls-1" d="M1444.45,128.51c0-6.25.09-12.49,0-18.74-.18-10.07-.69-20.14-.68-30.2,0-11.6.47-23.19.69-34.78.08-4.39,0-8.79,0-13.18.06-3.8,1.65-5.42,5.4-5.47,4.81-.06,9.62-.21,14.41,0,4,.21,6.31,3.09,6.45,7,.45,12.65,1.37,25.29,1.4,37.93,0,23.81-.39,47.62-.68,71.42-.19,15.07-.54,30.13-.7,45.2a32.92,32.92,0,0,0,.84,9.18c2.41,8.44-2.14,9.61-8.44,10.57-4.39.67-9,.29-13.46.08-3.45-.16-5.19-3.23-5.22-8.81v-70.2Z" transform="translate(-25 -25)"/><path class="cls-1" d="M333.27,197.73c-.21,8.89,2.74,12-11.59,11.24-8.32-.46-16.59-1.91-24.9-2.73-4.92-.49-9.87-.77-14.82-.9-6.45-.16-7.9-1.85-6.58-8.11a9.23,9.23,0,0,0,.12-2.23,250.85,250.85,0,0,1,2.92-43.63c1-6.08.95-12.3,1.62-18.42.81-7.32,2-14.59,2.8-21.91.49-4.29.7-8.63.9-13,.32-6.69.29-13.41.83-20.08.77-9.69,1.85-19.36,2.94-29,.59-5.22,1.34-10.42,2.28-15.59.66-3.7,3.29-5.19,6.94-5.12,3,.05,6,0,9,0,6.66.1,9.47,2.66,9.48,9.16,0,4.82-.39,9.65-.74,14.47-.41,5.53-.93,11-1.46,16.57-1.21,12.37-2.48,24.73-3.69,37.1-.56,5.77-1,11.54-1.57,17.31-.93,9.43-2.34,18.83-2.8,28.27-.5,10.17-.21,20.38,0,30.56,0,.87,1.67,2.34,2.68,2.45,6.25.71,12.52,1.28,18.8,1.57,5.6.25,6.84,1.32,6.88,7.1C333.28,194.51,333.27,196.11,333.27,197.73Z" transform="translate(-25 -25)"/><path class="cls-1" d="M176.76,68.11c-.42,9.4-.9,18.8-1.22,28.2-.12,3.4.51,6.85.13,10.21-.78,6.77-.47,13.67-3.32,20.23-3.17,7.31-9,10.35-16.18,11.76-6.12,1.2-12.33,2-18.46,3.13-2.42.47-4,1.82-4,4.87-.12,18.45-.45,36.9-.68,55.35-.07,5-1.6,7-6.19,8.72-5.86,2.14-11.82.9-17.68.55-1.38-.08-3.44-2.86-3.69-4.61-.57-3.94-.16-8-.24-12-.2-9.45-.55-18.9-.62-28.35,0-4.7.59-9.4.63-14.11.09-12.87-.06-25.75.06-38.62.08-8.2.46-16.4.72-24.6.24-7.33.61-14.65.72-22,.12-8.52,0-17.05.08-25.57a35.78,35.78,0,0,1,1.06-7.63c.89-3.71,3.39-5.52,7.29-5.34,11.65.53,23.34.65,35,1.65,7.22.62,14.15,3.17,19.49,8.42,4.67,4.58,6.18,10.76,6.83,17,.44,4.2.09,8.49.09,12.74Zm-26.52-1.34a31,31,0,0,0,0-4.09c-1.33-9-5.63-12.26-13.43-10.82-2.33.43-3.18,1.64-3.11,4.09.18,6,.06,12,.06,18V90.54c0,8.13-.11,16.27.1,24.4a4.79,4.79,0,0,0,2.29,3.66c3.72,1.37,11,.26,11.86-5.47.81-5.19,1.94-10.38,2.13-15.59.23-6.3-.54-12.63-.58-18.94,0-4.17.44-8.36.68-11.83Z" transform="translate(-25 -25)"/><path class="cls-1" d="M257.51,84.26c0,9.74-.15,19.49,0,29.23.18,8.48-4.48,14.37-10.17,19.6-6.64,6.13-15.29,7.14-23.74,8.44-2.43.38-5,.12-7.29.93a5.48,5.48,0,0,0-3,3.8c-.57,5.67-.65,11.38-.89,17.08-.26,6.32-.69,12.65-.69,19,0,6.09.45,12.18.69,18.27.4,10.42-3.69,10.44-12,10.67-3.31.09-6.64-.53-10-.67-4.06-.17-5.69-1.6-5.72-5.56,0-8.25-.1-16.49,0-24.74.18-14.19.36-28.39.78-42.58.18-6.15,1-12.28,1.4-18.44.2-3.38,0-6.79.06-10.18.19-6.2.58-12.4.72-18.6.31-13.56.58-27.13.73-40.7,0-3.57-.64-7.15-.67-10.72-.08-7,3.74-11,10.57-10.73,10.9.35,21.9.17,32.65,1.7,9.34,1.33,18.48,4.75,23.53,13.84a22.35,22.35,0,0,1,3,9.61C257.73,63.76,257.51,74,257.51,84.26Zm-26,9.75h-.23c0-2.87.1-5.75,0-8.61s-.71-5.9-.67-8.85c0-4.57.59-9.13.66-13.7.12-7.57-4.83-12.13-12.4-11.15a5.84,5.84,0,0,0-3.9,3.52,40.56,40.56,0,0,0-.89,9.51q-.47,24.64-.76,49.28c0,4.57,1.67,5.85,6,4.69,2.11-.57,4.19-1.26,6.29-1.88a6.6,6.6,0,0,0,4.93-6.12c.46-5.55.61-11.13.94-16.69Z" transform="translate(-25 -25)"/><path class="cls-1" d="M55.86,29.79h9.38c4.55,0,7,1.44,8.28,5.7a46.45,46.45,0,0,1,1.68,9.35c1.08,11.29,1.85,22.62,3,33.9,1,9.63,2.41,19.23,3.76,28.83,1.39,9.83,3,19.62,4.4,29.45,1,7,1.5,13.94,2.36,20.9.89,7.31,2.1,14.58,2.88,21.9.73,6.88,1.28,13.79,1.53,20.7.19,5.29-2.66,8.06-7.94,7.7-4-.27-8.18-.65-11.69-2.26-5-2.3-4.58-7.75-5-12.34-.88-9.21-1.46-18.45-2.35-27.66-.32-3.29-1.89-5.42-5.86-5-2.27.24-4.62-.41-6.94-.62s-3.92.87-4.3,3.09a63.24,63.24,0,0,0-.81,8.46c-.32,9.45-.46,18.9-.81,28.35-.21,5.94-3,9-9,10.27-2.38.5-4.76,1-7.16,1.46a5.46,5.46,0,0,1-6.21-4.57,5.12,5.12,0,0,1-.06-.78c0-4.7.35-9.41.78-14.09.61-6.61,1.68-13.19,2.09-19.8.52-8.19.52-16.4.83-24.6.46-12,.71-24.08,1.57-36.08.88-12.28,2.48-24.5,3.61-36.76C35,63.2,36,51.1,37,39c.54-6.52,3.4-9.2,9.89-9.21Zm3.58,58.27a5.33,5.33,0,0,0-1-3.1c-1-1.09-2.51-2.29-3.85-2.36-.81-.09-2.33,1.73-2.59,2.91A57.15,57.15,0,0,0,50.54,96.4c-.18,11.27-.06,22.53-.07,33.8,0,4.76,1.51,6.09,7.05,6.12,5,0,5,0,5-5.78V126.8h.29c-.35-3.44-.74-6.88-1-10.32" transform="translate(-25 -25)"/><path class="cls-1" d="M656.65,233.57H666c4.55,0,7,1.44,8.28,5.7a46.32,46.32,0,0,1,1.68,9.35c1.08,11.29,1.85,22.62,3,33.9,1,9.63,2.41,19.23,3.76,28.83,1.39,9.83,3,19.62,4.4,29.45,1,7,1.5,13.94,2.36,20.9.89,7.31,2.1,14.58,2.88,21.9.73,6.88,1.28,13.79,1.53,20.7.19,5.29-2.66,8.06-7.94,7.7-4-.27-8.18-.65-11.69-2.26-5-2.3-4.58-7.75-5-12.34-.88-9.21-1.46-18.45-2.35-27.66-.32-3.29-1.89-5.42-5.86-5-2.27.24-4.62-.41-6.94-.62s-3.92.87-4.3,3.09a63.08,63.08,0,0,0-.81,8.46c-.32,9.45-.46,18.9-.81,28.35-.21,5.94-3,9-9,10.27-2.38.5-4.76,1-7.16,1.46a5.44,5.44,0,0,1-6.2-4.57,6.85,6.85,0,0,1-.07-.78c0-4.7.35-9.41.78-14.09.61-6.61,1.68-13.19,2.09-19.8.52-8.19.52-16.4.83-24.6.46-12,.71-24.08,1.57-36.08.88-12.28,2.48-24.5,3.61-36.76,1.12-12.09,2.12-24.19,3.12-36.29.54-6.52,3.4-9.2,9.89-9.21Zm3.58,58.27a5.31,5.31,0,0,0-1-3.1c-1-1.09-2.51-2.29-3.85-2.36-.81-.09-2.33,1.73-2.59,2.91a57.85,57.85,0,0,0-1.46,10.89c-.18,11.27-.06,22.53-.07,33.8,0,4.76,1.51,6.09,7,6.12,5,0,5,0,5-5.78v-3.74h.29c-.35-3.44-.74-6.88-1-10.32" transform="translate(-25 -25)"/><path class="cls-1" d="M778.55,348a22.48,22.48,0,0,0-3-9.61,23.46,23.46,0,0,0-2.51-3.67,3,3,0,0,1-.37-3.2c.15-.31.29-.62.43-.94,2.85-6.56,2.54-13.46,3.32-20.23.38-3.36-.25-6.81-.13-10.21.32-9.4.8-18.8,1.22-28.2h-.18c0-4.25.35-8.54-.09-12.74-.65-6.24-2.16-12.42-6.83-17-5.34-5.25-12.27-7.8-19.49-8.42-11.66-1-23.35-1.12-35-1.65-3.9-.18-6.4,1.63-7.29,5.34a35.61,35.61,0,0,0-1.06,7.63c-.08,8.52,0,17.05-.08,25.57-.11,7.35-.48,14.67-.72,22-.26,8.2-.64,16.4-.72,24.6-.12,12.87,0,25.75-.06,38.62,0,4.71-.63,9.41-.63,14.11.07,9.45.42,18.9.62,28.35.08,4-.33,8.06.24,12,.25,1.75,2.31,4.53,3.69,4.61,5.86.35,11.82,1.59,17.68-.55,4.59-1.72,6.12-3.67,6.19-8.72.23-18.45.56-36.9.68-55.35,0-2.32.92-3.65,2.41-4.36,7.2.13,15.64,4.57,15.53,11.36-.07,4.57-.61,9.13-.66,13.7,0,2.95.57,6,.67,8.85s0,5.74,0,8.61h.2c-.33,5.56-.48,11.14-.94,16.69-.09,2.13-.45,6.16-.05,8.55.33,2.05,3.63,1.47,6.21,1.52a72.54,72.54,0,0,1,11,1.05,6.36,6.36,0,0,0,7.4-5.36c.35-2.45,1-5.1,1.32-7.56,1.57-10.84,1.2-9.48,1.13-24.64C778.61,364.43,779.44,360.26,778.55,348ZM737.6,255.64c7.8-1.44,12.1,1.82,13.43,10.82a31,31,0,0,1,0,4.09c-.24,3.47-.72,7.66-.68,11.83,0,6.31.81,12.64.58,18.94-.19,5.21-1.32,10.4-2.13,15.59-.86,5.73-8.14,6.84-11.86,5.47a4.81,4.81,0,0,1-2.29-3.66c-.21-8.13-.1-16.27-.1-24.4V277.73c0-6,.12-12-.06-18C734.42,257.28,735.27,256.07,737.6,255.64Z" transform="translate(-25 -25)"/><path class="cls-1" d="M834,370.72V353.47c0-4.6,2.77-7.33,7.3-7.34h10.5c6.64,0,9.84,2.67,9.86,9.4q0,19.62-.81,39.22c-.11,2.5-1.59,5.22-3.14,7.32-6.43,8.71-14.41,14.46-26,13.91-9.61-.44-19.1-.55-28.24-4.4a15.66,15.66,0,0,1-9.83-11.89c-.79-3.7-.69-7.62-.85-11.44-.54-12.9-1-25.81-1.54-38.7-.41-9.16-1.25-18.3-1.43-27.46-.41-21.32-.61-42.64-.77-64,0-7.53,7.1-16.84,14.09-19.64,7.84-3.14,15.65-5.2,24.3-5.09,7.8.11,13.85,3.38,20,7.23,5,3.09,7.52,8,10.24,12.78a11.25,11.25,0,0,1,1,5.36c.08,11,.05,22,0,33,0,6.34-2.27,8.51-8.64,8.64-3.57.07-7.13.44-10.71.59-3,.12-5.19-2.35-5.37-6.24-.32-6.7-.39-13.41-.82-20.1-.28-4.28-1-8.53-1.59-12.78-.39-2.75-2.07-4.23-4.78-4.88-6.53-1.57-10.8,1.63-10.83,8.31,0,7-.1,14,0,21,.12,6.57.59,13.14.69,19.72.13,8-.15,16,.08,24,.33,12,1,24,1.46,36.08.25,6.07.45,12.15.77,18.22a42.68,42.68,0,0,0,.89,8,3.91,3.91,0,0,0,3,2.38c2.68.11,5.65.19,8-.87,1.54-.7,3-3.33,3.07-5.19C834.21,382.72,834,376.72,834,370.72Z" transform="translate(-25 -25)"/><path class="cls-1" d="M943.43,333c0-.57,0-1.16.06-1.73.47-6.59,1-8.38,1.19-15-.33-3.21-1.18-10.07-1.18-13.23-.16-13.24-.67-37.71-.67-51l-.19-1.77v-12c0-2.78-.77-4.69-4.25-4.69-5,0-9.9-.58-14.9-.63-5.29-.09-7.93,2.67-7.83,7.91.18,8.7,1.24,17.47.52,26.09-.66,8.39-1.51,16.68-.66,25.08s.74,16.9.85,25.35l0,2.79a3.89,3.89,0,0,1-3.89,3.93h-8.68c-2.16,0-3.71-1.35-3.86-4.14l0-.79c.47-6.58.18-13.15.34-19.73.07-3.14-.33-6.29-.33-9.45-.16-13.24-.68-25.49-.68-38.73l-.18-1v-12c0-2.78-.77-4.69-4.25-4.69-5,0-9.9-.58-14.9-.63-5.29-.09-7.93,2.67-7.83,7.91.18,8.7,1.24,17.47.52,26.09-.66,8.39-1.51,16.68-.66,25.08s.74,16.9.85,25.35c.31,25.08.49,50.16.8,75.24.07,5.95.36,11.91.78,17.85.2,2.81,1.47,4.89,4.91,4.74,3.62-.15,7.26-.19,10.87,0,8.06.37,10.37-2.63,10.37-10.63,0-6-.67-11.91-.67-17.91q-.06-19.69,0-39.39a3.89,3.89,0,0,1,3.89-3.89h9a3.88,3.88,0,0,1,3.88,3.85q.23,22.69.49,45.38c.07,5.95.36,11.91.78,17.85.2,2.81,1.47,4.89,4.91,4.74,3.62-.15,7.26-.19,10.87,0,8.06.37,10.37-2.63,10.37-10.63,0-6-.67-11.91-.67-17.91C943.37,364.87,943.43,355.42,943.43,333Z" transform="translate(-25 -25)"/><path class="cls-1" d="M983.1,250.38c0,13.24-.09,26.48.07,39.72,0,3.16,1.4,6.31,1.33,9.45-.16,6.58-.87,13.15-1.34,19.73-.07,1-.06,2-.06,3,0,21.5-.06,43,0,64.5,0,6,.66,11.94.67,17.91,0,8-2.31,11-10.37,10.63-3.61-.19-7.25-.15-10.87,0-3.44.15-4.71-1.93-4.91-4.74-.42-5.94-.71-11.9-.78-17.85-.31-25.08-.49-50.16-.8-75.24-.11-8.45,0-16.95-.85-25.35s0-16.69.66-25.08c.72-8.62-.34-17.39-.52-26.09-.1-5.24,2.54-8,7.83-7.91,5,.05,9.93.65,14.9.63,3.48,0,4.22,1.91,4.25,4.69v12Z" transform="translate(-25 -25)"/><path class="cls-1" d="M1037.37,353.75c-.82,7.73-1.64,15.46-2.56,23.18-.32,2.73-.21,6.36-4,6.9-4,.56-4.8-3.16-5.39-5.61a109.31,109.31,0,0,1-3.46-24.68c0-1-.16-3.57-.3-5.65.13,0,.25-5,.37-5,.13-8.88.38-12.76.36-21.63,0-12.41-.28-24.81-.5-37.22-.1-3.25-.46-6.49-.45-9.74,0-12.12.14-24.24.17-36.36,0-2.91-1.65-4.74-4.48-4.86a98.75,98.75,0,0,0-14.08.07c-4.6.46-7.14,3.06-7.46,7.7-.6,8.34-.8,16.72-.93,25.09-.15,9.17.87,18.33,1,27.5.19,14.08,1.52,28.08,1.78,42.09.06,3.2.14,3.41.2,6.62,0,0,.16,3.58.06,5.45a29.37,29.37,0,0,0,.42,3.36c.68,2.21.84,5.35,1.57,9.42,1.05,5.81,2.3,11.58,3.46,17.37,2,10.37,6.77,20.77,9.07,31.09a6.68,6.68,0,0,0,4.7,3.7c4.88.39,16.69.44,21.57.13,5.36-.2,7.37-1.9,8.1-6.47a42.37,42.37,0,0,1,1.69-7.14c4.57-13.28,10.24-20.76,11.41-31.09.55-5.08,1.45-10.17,1.29-15.26.25,0,.44-4.7.69-4.66.08-4.89.11-5,0-9.92-.11-8.9.92-17.82,1-26.73.12-9.88.57-19.75.57-29.62,0-8.83-.53-17.65-.6-26.48a122.62,122.62,0,0,1,.68-12.85c.41-4.1-1.43-8.41-4.53-8.7a88.8,88.8,0,0,0-14.21-.61c-4.65.23-6.44,2.32-6.46,5.95,0,4.7,0,9.41,0,14.12q0,13.54,0,27.12-.06,19.67-.1,39.35c0,5.08.18,10.17,0,15.24-.11,4.27-.36,6.55-.64,10.82v2" transform="translate(-25 -25)"/><path class="cls-1" d="M1138.67,238.57c-10.31-.83-20.66-1.49-31-2.32-3.92-.33-7.81-1-11.72-1.33-9.4-.85-12.38.63-13.65,9.91a138.06,138.06,0,0,0-.82,15.22c-.31,11.95-.48,23.85-.78,35.85-.18,7.45-.34,14.91-.77,22.35-.61,10.43-1.61,20.94-2.17,31.43-.89,16.59-1.53,33.19-2.32,49.79-.08,1.83-.44,3.65-.66,5.47-.5,4.31,1.37,8.78,6.68,8.41a105.36,105.36,0,0,1,11.24,0c11.16.44,22.31,1.39,33.45,1.32,7-.05,9.92-2,9.32-9.19-.07-1.12,0-2.25,0-3.37.1-6-3.64-8.22-8.36-8.9-5.75-.87-11.64-.73-17.46-.87-5.66-.12-7.1-1.44-7.16-7.3V370.42l-.79-.12c1-11.7,1.88-23.41,3-35.1.3-3,1.15-6.15,5.41-6,6.24.23,12.5,0,18.68.68,4.62.5,9.42-2.61,9.57-7.3.11-2.87.14-5.75,0-8.62-.24-4.83-2.77-8.27-6.93-8.55a73.05,73.05,0,0,0-13.39.4c-4.31.5-9.5-1.32-10.16-4.63a40.16,40.16,0,0,1-.9-10.31c.5-8.49,1.49-16.94,2.13-25.42.35-4.74,1.06-6.05,5.42-6.55a33.33,33.33,0,0,1,7.72.51c3.89.46,7.74,1.17,11.65,1.6s6-1.83,6.69-5.34c.74-4.09,1.11-8.26,1.53-12.4C1142.42,240.73,1141.4,238.79,1138.67,238.57Z" transform="translate(-25 -25)"/></svg>