<svg id="Layer_1" data-name="Layer 1" xmlns="http://www.w3.org/2000/svg" viewBox="0 0 1155.83 381.93"><defs><style>.cls-1{fill:#fff;}</style></defs><path class="cls-1" d="M211.86,325.66c-.54,3.07-1.52,6.13-1.55,9.2-.14,18.38-.1,36.75,0,55.13,0,2.82.57,5.65.7,8.48.3,6.33-.65,5.68-5.62,6.52-4.62.79-9.49.43-14.21.09-3.32-.24-4.2-2.82-4.18-5.91.06-12.37.12-24.75,0-37.12-.15-15.83-.46-31.66-.73-47.48q-.34-21.12-.76-42.23c-.17-8.33-.37-16.66-.79-25-.21-4.29-.9-8.55-1.44-12.82-.47-3.67,1.83-6.67,5.82-7.08s7.9-.48,11.84-.81c5-.43,10-1.21,15.07-1.43,5.87-.25,8.43,2.29,9.29,8.06s2.09,11.55,3,17.36,1.45,11.94,2.31,17.89c.92,6.42,2,12.82,3.06,19.22a15.44,15.44,0,0,1,.62,3.2c-.2,3.49,1.06,5.72,4.75,6.14,5-2.87,3.75-8.09,4.15-12.33,1-10.24,1-20.55,1.7-30.82.51-7.61,1.43-15.19,2.21-22.78.42-4.11,2.37-6,6.48-6,9.14-.05,18.29.16,27.42-.1,3.66-.1,5.33,1.11,6.54,5.51a7.74,7.74,0,0,1,.05,1.87c.25,20.7.54,41.4.74,62.1.29,29.58.48,59.16.79,88.73.05,4.58.62,9.15.68,13.73.08,5.48-1.94,7.4-7.28,7.41-3,0-6-.17-9,.05-3.39.26-5.56-.66-5.74-4.42-.06-1.35-.42-2.68-.42-4,0-21,0-42-.06-63a34.89,34.89,0,0,0-.83-8.42c-.39-1.54-2-2.77-3-4.15-1.2,1.1-3.18,2-3.45,3.33a120.59,120.59,0,0,0-1.64,12.76q-1.89,18.18-3.69,36.36c-.38,3.82-.5,7.65-.84,11.47-.45,5.15-.82,10.32-1.58,15.43-.55,3.66-3.92,4.3-6.76,4.52a128.32,128.32,0,0,1-13.87.07c-3.34-.1-5.74-2.85-6.28-6.6-1.71-11.89-4.22-23.72-5-35.67a191.47,191.47,0,0,0-4.07-28.8,78.3,78.3,0,0,0-2.6-7.94Z" transform="translate(-25 -25)"/><path class="cls-1" d="M325.76,350.52q0,22.05,0,44.1a11.05,11.05,0,0,0,.46,2.52c1.15,4.75-.92,7.51-5.88,8.07a66.74,66.74,0,0,0-7.59,1.26c-4.78,1.09-8.64-1.8-8.76-6.76-.27-11.2-.47-22.4-.77-33.6-.46-17.41-1.06-34.8-1.47-52.21-.35-14.82-.5-29.65-.77-44.48-.23-12.07-.53-24.15-.73-36.22-.08-4.91.83-5.5,5.84-5.84,8.6-.57,17.18-1.59,25.79-2.14,4.81-.3,6.48,1.87,8.24,6.56,3.62,9.6,3.19,19.8,5.1,29.63,1.84,9.48,3.38,19,5.35,28.46.51,2.45,1.22,6.17,4.69,5.61,3.28-.54,3.17-4.18,3.46-6.91.8-7.71,1.51-15.44,2.22-23.17.11-1.24,0-2.5,0-3.75.33-7.33.6-14.67,1.05-22a67.92,67.92,0,0,1,1.25-8.71,6.87,6.87,0,0,1,7.08-5.76c6.12-.05,12.24,0,18.37,0,3.27,0,6.54-.13,9.8,0,3.88.2,5.26,1.69,5.18,5.66-.1,4.82-.69,9.65-.64,14.47.05,5.18.57,10.37.92,15.55.09,1.35.48,2.68.48,4,0,15.13-.05,30.25.06,45.37.05,6.58.71,13.16.67,19.73-.11,16.7-.52,33.4-.66,50.11,0,4.19.62,8.4.64,12.6a39.88,39.88,0,0,1-.92,7.67c-.56,2.9-2.11,4.45-5.45,4.13a59.88,59.88,0,0,0-10.11,0c-3.2.23-4.78-1.5-5.1-4.15a84,84,0,0,1-.11-9.79c0-7.12.08-14.25,0-21.37q-.28-20.74-.78-41.48c0-2.28.45-5.27-3.07-5.74-2.54-.33-5.61,2.78-5.85,5.94-.81,10.6-1.33,21.21-2.34,31.78-1,10.15-2.4,20.26-3.61,30.38-.32,2.69-.44,5.4-.84,8.07-.66,4.42-2.42,6.06-7,6.26a77.24,77.24,0,0,1-12.73-.13,6,6,0,0,1-4.08-3.7c-2.05-10.32-3.65-20.72-5.41-31.09-1-5.79-2.09-11.56-3-17.37s-1.49-11.68-2.29-17.52a74.15,74.15,0,0,0-1.59-9c-.36-1.33-1.66-2.41-2.54-3.6-.87,1.32-2.46,2.62-2.49,4C325.64,334.11,325.76,342.32,325.76,350.52Z" transform="translate(-25 -25)"/><path class="cls-1" d="M514,378.05c-1.67-12.5-3.49-25.65-5.17-38.82-.68-5.38-1-10.8-1.59-16.19-.95-8.92-2.18-17.83-2.87-26.77-.44-5.72.25-11.52-.2-17.24q-1.47-18.94-3.67-37.85c-.7-6,3-10.82,9.08-10.75,6.93.09,13.8,0,20.55-2,4.24-1.28,10,2.32,10.89,6.53,2.31,11,4.57,22,6.71,33,2.34,12,4.38,24.06,6.83,36,1.51,7.4,3.53,14.69,5.35,22a5.56,5.56,0,0,0,.86,2.39c.87,1,2,2.28,3.08,2.33.81,0,2.38-1.62,2.45-2.61a155.26,155.26,0,0,0,.68-17.77c-.23-5.74-1.32-11.46-2-17.19-1-8.92-2-17.84-2.92-26.77-.46-4.68-.43-9.41-.87-14.09-.51-5.37-1.36-10.71-1.93-16.08-.25-2.34-.69-4.85-.09-7a6.14,6.14,0,0,1,3.78-3.81,60.41,60.41,0,0,1,11.8-.89c4.51,0,5.67,1.93,5.92,5.8.45,6.94.29,13.92.88,20.84.66,7.83,2,15.6,2.82,23.41.67,6.13,1.05,12.3,1.61,18.44,1,10.55,2.14,21.09,2.92,31.65.54,7.43.39,14.91.87,22.35.85,13.06,2,26.1,2.9,39.16a77.52,77.52,0,0,1,0,10.11c-.18,2.86-2,4.3-4.9,4.47q-11.48.68-22.94,1.49c-7.62.54-11.18-2.44-12.62-10.08-1.68-8.86-3.78-17.64-5.48-26.5-1.8-9.37-3.1-18.85-5.08-28.17-1.6-7.48-3.8-14.84-5.92-22.2a100.79,100.79,0,0,0-3.85-10.64,3.64,3.64,0,0,0-2.39-2c-.57-.08-1.78,1.25-1.95,2.09a23.28,23.28,0,0,0-.51,6.49c.49,5.25,1.38,10.46,1.92,15.7,1.06,10.42,2,20.85,3,31.28.32,3.45.5,6.9.81,10.35.73,8.1,1,16.29,2.39,24.26,2.27,12.57-3.18,12-11,13.13-.86.12-1.76-.07-2.62,0-5.44.61-7.24-3.25-7.4-7C513.83,392.22,514,385.51,514,378.05Z" transform="translate(-25 -25)"/><path class="cls-1" d="M1024.11,315.9c1.18,8.14,2.48,16.27,3.53,24.43.95,7.44,2.09,14.91,2.35,22.39.35,10.51.86,20.95,3,31.27,1.48,7,.17,8.88-7,10.58a60,60,0,0,1-6.45,1.33c-5.11.61-7.57-1.94-8.14-8.95-1.12-13.91-1.92-27.85-3.08-41.76-.77-9.19-2-18.35-2.9-27.53-.62-6.26-.94-12.56-1.59-18.82-.84-8.06-1.89-16.11-2.84-24.16-.29-2.45-.64-4.89-.84-7.34-1-13-2.15-26.09-3-39.15-.35-5.49.71-6.58,6.05-6.2,6.42.47,12.41-1.17,18.53-2.54a27.3,27.3,0,0,1,9.24-.35c5.94.76,6.92,5.89,8,10.47,1.26,5.22,2.13,10.54,3.09,15.82,1.29,7.09,2.32,14.24,3.8,21.28,1.73,8.24,4,16.37,5.7,24.61,1.34,6.47,2.05,13.06,3.31,19.55a29.65,29.65,0,0,0,2.77,7.91,4.79,4.79,0,0,0,3.64,2c.84,0,2.4-1.64,2.45-2.61a124.81,124.81,0,0,0,0-13.54c-.28-4.92-.86-9.82-1.43-14.71-1.18-10.13-2.52-20.24-3.64-30.37-.69-6.26-1-12.55-1.61-18.82-.35-3.67-1.19-7.31-1.24-11a38.43,38.43,0,0,1,1.18-10.87c.44-1.53,2.86-3,4.67-3.52,2.55-.77,5.37-.56,8-.94,4.17-.58,6.59,1.9,7.44,5.23,1.75,6.86,3.4,13.79,1.85,21.08-.54,2.53.4,5.37.56,8.07.78,13,1.44,26,2.29,38.93.62,9.48,1.45,19,2.23,28.43,1.23,14.76,2.37,29.52,3.8,44.26.67,6.94,2,13.83,2.89,20.75.81,6.21-3,9.75-8.2,9.7-8.13-.08-16.28.83-24.42,1.33-2.93.18-6-2.64-7-6.79-3-11.93-6.3-23.81-8.88-35.84-2.67-12.41-4.54-25-7-37.47a109.52,109.52,0,0,0-3.83-13.72,6.6,6.6,0,0,0-3.12-3.35c-1.8-.9-3.48-.42-3.48,2.17,0,2.87,0,5.75,0,8.62Z" transform="translate(-25 -25)"/><path class="cls-1" d="M458.49,176.29c0-6.75-.05-13.5,0-20.25.23-28.2.65-56.4.66-84.6,0-10.65-1.11-21.3-1.31-32a24.59,24.59,0,0,1,2-9.93c.64-1.48,3.38-2.82,5.22-2.88,5.18-.17,10.39.52,15.6.55a104.94,104.94,0,0,0,11.47-.71A37.52,37.52,0,0,1,514,30.85,25.87,25.87,0,0,1,527.5,49.93c1.07,6.19,1,12.36,1,18.66-.09,23,.49,46.06,1.43,69.07a104.92,104.92,0,0,1-.71,20.2c-.73,4.92,0,10.17.77,15.16,1,6.39.36,11.84-3.59,17.41s-7.89,10.44-13.58,13.75a22.17,22.17,0,0,1-9.6,3c-5.79.28-11.64-.56-17.46-.55-6.46,0-12.9.52-19.36.67-4.64.12-6.59-1.46-7.09-6-.48-4.41-.64-8.87-.78-13.32C458.39,184,458.49,180.16,458.49,176.29Zm27-10.42h.75c0,4.75-.25,9.52.13,14.24.14,1.82,1.26,4.35,2.71,5.15,3.72,2.05,10.19-.76,11.6-4.85a31.17,31.17,0,0,0,2-9.63c.07-7.69-.5-15.4-.63-23.1q-.47-28.23-.72-56.48c0-5,.65-9.9.65-14.85,0-5.33-.42-10.65-.7-16-.63-11.43-1.41-11.5-11.79-11.33-3.46.05-5.14,1.89-5,5.27.37,10.8.87,21.6,1,32.41.18,12.51,0,25,0,37.55Z" transform="translate(-25 -25)"/><path class="cls-1" d="M917.58,354.62c0-15.07.46-30.17-.15-45.22-.46-11.16-2.81-22.23-3.4-33.39-.43-8.19-.85-16.43,1.5-24.71,2-7.11,4.4-13.55,10.28-18.22a36.75,36.75,0,0,1,19.07-7.85,46.85,46.85,0,0,1,26.21,4.64c8,4,13.49,10.4,13.94,19.79.51,10.94.48,21.9.83,32.85.42,13.28,1.17,26.55,1.44,39.84.41,20.2.93,40.41.47,60.6-.1,4.33-3.78,8.83-6.5,12.78-5.56,8.1-14.34,9.93-23.31,10.08a129.84,129.84,0,0,1-22.54-1.56A17.29,17.29,0,0,1,923.18,395a35.27,35.27,0,0,1-3.92-13.55c-.61-8.91-.18-17.9-.18-26.85Zm41.26-87.93h-.76V256.56c0-7.28,0-7.28-7.06-9-4.71-1.16-8,1.29-7.92,6.14q.31,35.36.74,70.72.3,24.87.77,49.73a28.61,28.61,0,0,0,.89,8,5.87,5.87,0,0,0,3.8,3.25c2.07.42,4.36-.24,6.56-.48,4.13-.45,5.3-1.7,5.21-5.95-.2-9.45-.43-18.91-.75-28.35-.45-13.66-1.19-27.3-1.43-41C958.64,295.34,958.84,281,958.84,266.69Z" transform="translate(-25 -25)"/><path class="cls-1" d="M108.42,363c-.57-13.27-1.34-26.53-1.63-39.8-.28-12.8,0-25.61-.09-38.42-.11-10.44-.13-20.91-.83-31.33-.59-8.78,3.18-15.22,9.71-20.06,7.47-5.54,16.24-9.25,25.51-8.71,10.23.6,20.34,3.13,28.12,10.85a16.9,16.9,0,0,1,5,11.54c.26,6.39,0,12.8.09,19.19.13,6.7.57,13.39.71,20.09.31,14.82.49,29.64.77,44.45q.31,16.43.76,32.84c.16,5.71.45,11.43.74,17.14.55,10.84-8.51,22.33-19.17,23.6a155.65,155.65,0,0,1-22.9,1.44c-11.34-.36-23.44-6.56-25.85-19.78-1.38-7.51-1-15.33-1.47-23Zm41.06-99.28-.52,0c-.33-4.32-.49-8.65-1.09-12.93a4.2,4.2,0,0,0-2.59-2.93,33.83,33.83,0,0,0-9,0c-1,.13-2.34,1.92-2.45,3-.49,5.17-.8,10.38-.8,15.58s.53,10.14.67,15.22c.31,10.69.53,21.38.77,32.07.26,12.07.48,24.14.76,36.21.22,9.69.45,19.38.76,29.08.15,4.69,2,7.2,5.56,7.95s6.48-1.18,8.09-5.67a20,20,0,0,0,1.27-6.78q-.21-25.79-.7-51.56c-.16-8.45-.61-16.89-.71-25.34C149.39,286.34,149.48,275,149.48,263.7Z" transform="translate(-25 -25)"/><path class="cls-1" d="M456.59,367.54c1.14-12.91,2.33-25.82,3.39-38.74.42-5.06.51-10.15.8-15.22.73-13.1,1.5-26.2,2.24-39.3q.78-13.53,1.5-27.07c.26-4.7.48-9.4.76-14.1.21-3.63,2.12-5.61,6.78-5.58A115.3,115.3,0,0,1,488.21,229c3.07.46,4.67,4.86,4.05,8.94a120.27,120.27,0,0,0-1.44,12.82c-.41,8.82-.36,17.65-.85,26.47-.54,9.86-1.52,19.69-2.18,29.55-.6,8.89-1.12,17.79-1.49,26.69-.59,14-.92,28.05-1.56,42.07C484,391.36,475,400.94,464,404.72a31.33,31.33,0,0,1-18.77.64c-2.47-.66-5.13-.58-7.69-.92-16.75-2.27-23.12-14-22.51-27.55.42-9.53,1-19.05,1.48-28.57.33-7.07.51-14.15.77-21.22.5-14,.93-28.05,1.52-42.07.38-9.16.86-18.31,1.51-27.45.59-8.35,1.26-16.71,2.3-25,.58-4.62,3.26-7.08,7.88-7.29a100.27,100.27,0,0,1,14,.7c2.83.28,4.38,2.2,4.22,5.1-.69,12.1-1.49,24.2-2.16,36.3-.18,3.24,0,6.5-.09,9.75-.46,12.4-.86,24.8-1.52,37.19-.58,10.73-1.53,21.44-2.19,32.17-.6,9.64-1.15,19.29-1.43,28.95a17.3,17.3,0,0,0,1.64,7.43c.89,2,2.61,3.24,5.43,2.28,7.14-2.41,8.27-3.78,8.58-12.33.06-1.75,0-3.5,0-5.25Z" transform="translate(-25 -25)"/><path class="cls-1" d="M70,361.52c0-5.75,0-11.5,0-17.25,0-4.6,2.78-7.33,7.3-7.34h10.5c6.64,0,9.85,2.67,9.86,9.4q0,19.6-.81,39.22c-.1,2.49-1.59,5.22-3.14,7.32-6.43,8.71-14.4,14.45-26,13.91-9.61-.45-19.09-.55-28.23-4.4a15.63,15.63,0,0,1-9.83-11.89c-.8-3.7-.7-7.62-.86-11.45-.54-12.89-1-25.8-1.54-38.69-.4-9.16-1.24-18.3-1.42-27.46-.42-21.32-.61-42.64-.77-64-.06-7.53,7.1-16.84,14.09-19.64,7.84-3.14,15.65-5.21,24.29-5.09,7.81.11,13.86,3.38,20.05,7.22,5,3.1,7.53,8,10.25,12.79a11.39,11.39,0,0,1,1,5.36c.09,11,.06,22,0,33,0,6.34-2.28,8.51-8.64,8.64-3.57.07-7.14.43-10.71.59-3,.12-5.19-2.35-5.38-6.24-.31-6.7-.38-13.41-.82-20.1-.28-4.28-1-8.53-1.59-12.78-.38-2.75-2.07-4.23-4.77-4.88C56.27,246.22,52,249.42,52,256.1c0,7-.11,14,0,21,.12,6.58.59,13.15.69,19.73.13,8-.15,16,.07,24.05.34,12,1,24.05,1.47,36.07.25,6.08.45,12.16.76,18.23a44,44,0,0,0,.89,8.05,4,4,0,0,0,2.9,2.34c2.67.11,5.64.19,8-.87,1.54-.7,3-3.33,3.08-5.19C70.21,373.53,70,367.51,70,361.52Z" transform="translate(-25 -25)"/><path class="cls-1" d="M665.55,273.82v20.63c0,15.26-.19,30.54.06,45.8q.3,18.79,1.53,37.58c.41,6.53,3.48,8.84,7,8.63,5.51-.33,8.67-3.61,8.67-9.32q0-16.32,0-32.63c0-4.77,2.17-7.32,6.92-7.53s9.75-.15,14.62,0c3.21.09,5.38,2.78,5.42,7.09.11,13.28.18,26.56,0,39.83-.08,4.89-2.62,8.82-5.76,12.7-6.49,8-14.91,10.25-24.6,10.13-7.41-.09-14.75,0-22-2.19-8-2.44-15.78-10.32-15.85-19.46-.07-9.95-.42-19.9-.71-29.85-.48-16.15-.92-32.31-1.55-48.46-.17-4.53-1.13-9-1.34-13.57-.14-3.05.55-6.13.64-9.21a72.33,72.33,0,0,0-.1-11.31,99.62,99.62,0,0,1,.94-30.64,11.32,11.32,0,0,1,3.09-5.2A38.6,38.6,0,0,1,668,224.52c5.42-.43,11.39-1.13,16.28.61,11,3.91,20.48,10.39,23.25,22.9.85,3.83.59,7.9.79,11.87s.46,8.16.56,12.25c.11,4.61.23,9.24,0,13.84-.16,3.47-3.07,4.78-5.83,5a131.53,131.53,0,0,1-15.76.16c-3.39-.14-4.31-3-4.48-5.75-.4-6.81-.42-13.66-.85-20.47a66.18,66.18,0,0,0-1.59-12c-1.08-4.28-7.3-7.23-11.44-5.8-2,.71-3.55,1.88-3.48,4.58C665.66,259.07,665.55,266.44,665.55,273.82Z" transform="translate(-25 -25)"/><path class="cls-1" d="M1100.26,376.73c.64-9.36,1.17-18.25,1.88-27.14.34-4.25,3.1-6.59,7.34-6.66,5.46-.1,10.74-.05,15.51,3.5,3.84,2.87,4.89,4.8,4,9.52-.68,3.74-1.06,7.54-1.39,11.33-.37,4.32-.51,8.65-.78,13-.13,2.17.68,3.54,3,4,2,.39,4.11,1.56,6,1.27,3.37-.5,5.82-2,6.25-6.36.54-5.54,2.88-10.9,3.43-16.44,1.07-10.79-3.52-20.2-8.91-29.06-5.85-9.6-12.45-18.74-18.37-28.3-6.33-10.23-11.36-21-10.07-33.55.69-6.83,1.73-13.63,2.62-20.43.06-.49.36-1,.31-1.43-.94-9.61,5.21-15.26,12.08-19.74,7.18-4.68,15.28-6.31,24.17-5.27,6.74.79,13,2.37,18.82,5.65,6.48,3.68,12.39,8.19,14.06,16.09a40,40,0,0,1,.62,8.82c-.12,6.83-.53,13.65-.69,20.48-.14,6.33-2.88,9.49-9.28,9.92a94.83,94.83,0,0,1-11.68,0c-4.39-.26-6.64-2.83-6.71-8.44,0-4.77.87-9.55,1.16-14.33a67.89,67.89,0,0,0,.08-11.58c-.34-3.08-2.93-4.92-5.93-5.19-3.5-.31-8.33,2.75-8.85,5.43-2.22,11.42-3.68,22.9-.61,34.39.54,2,2,3.86,3.14,5.7,2.76,4.37,5.6,8.69,8.41,13,5.45,8.41,11.61,16.46,16.14,25.34a45.76,45.76,0,0,1,4.52,30c-.93,4.82-.66,9.88-.91,14.82-.39,7.9-1.27,15.57-6.73,22-3.66,4.31-8,7.8-13.58,8a207.3,207.3,0,0,1-28.75-.81c-8.38-1-14.85-6.56-18.7-13.68C1099.74,386.65,1100.66,381.12,1100.26,376.73Z" transform="translate(-25 -25)"/><path class="cls-1" d="M748.23,225.49c3.3-.36,6.62-.67,9.92-1.07,5.24-.64,10.66,4.2,10.94,9.45,1,18.42,1.71,36.83,6.42,54.88,1.88,7.18,1.73,14.89,2.56,22.35.72,6.47,1.43,12.95,2.27,19.41.92,7.05,2,14.08,3,21.12,1.49,10.69,3.09,21.36,4.42,32.07a125.63,125.63,0,0,1,.79,13.72c.05,4.87-2.23,7.18-7,6.95a61.92,61.92,0,0,1-11.61-1.5c-3.95-.95-5.67-4.36-6-8.05-.74-7.88-1.06-15.79-1.59-23.69-.21-3.21-.43-6.41-.77-9.6s-5.63-5.51-11.77-5c-4,.31-5.36,1.5-5.48,5.41-.08,2.45-.54,4.89-.7,7.34-.65,9.81-1.14,19.63-2,29.42-.13,1.61-1.35,4-2.66,4.5a50.76,50.76,0,0,1-12.22,3.37c-3.4.44-5.82-2.35-5.63-5.78.65-11.48,1.47-22.95,2.19-34.42q.47-7.25.76-14.48c.3-7.32.31-14.66.81-22,.82-11.81,2-23.6,2.92-35.41.33-3.94.57-7.89.78-11.85.77-14.6,1.45-29.2,2.31-43.8a40.61,40.61,0,0,1,1.61-8.64c1.22-4.25,5.12-4.52,8.61-5a56.18,56.18,0,0,1,7.11-.05Zm2.38,51.93-1.88.14c-.72,2.13-1.92,4.22-2.08,6.39-.49,6.8-.8,13.63-.79,20.45,0,7.94.62,15.87.62,23.81,0,3.3,1.1,4.81,4.34,5,5.46.29,6.86-.21,6.86-4.17,0-7.41-.39-14.85-1.14-22.22s-2-14.55-3.3-21.77C752.77,282.42,751.51,280,750.61,277.42Z" transform="translate(-25 -25)"/><path class="cls-1" d="M410.48,161.4c0,4.87,0,9.75,0,14.62.07,5.86,1.5,7.17,7.16,7.3,5.83.13,11.72,0,17.46.87,4.72.67,8.46,2.86,8.38,8.9,0,1.12-.08,2.25,0,3.37.59,7.19-2.36,9.14-9.33,9.18-11.15.08-22.3-.88-33.45-1.31a103,103,0,0,0-11.25,0c-5.3.37-7.18-4.1-6.67-8.41.21-1.83.57-3.64.66-5.47.78-16.6,1.43-33.2,2.31-49.79.56-10.49,1.56-21,2.17-31.44.44-7.44.59-14.89.78-22.35.29-11.94.47-23.9.78-35.84a137.66,137.66,0,0,1,.81-15.22c1.28-9.28,4.26-10.76,13.65-9.92,3.92.36,7.8,1,11.72,1.34,10.34.83,20.69,1.49,31,2.32,2.73.22,3.76,2.16,3.5,4.69-.41,4.15-.78,8.32-1.53,12.41C448,50.17,445.9,52.44,442,52s-7.76-1.13-11.65-1.59a33.5,33.5,0,0,0-7.71-.51c-4.37.5-5.07,1.8-5.43,6.54-.64,8.48-1.63,16.94-2.13,25.43a41.19,41.19,0,0,0,.9,10.31c.67,3.31,5.86,5.13,10.17,4.63a73.87,73.87,0,0,1,13.38-.4c4.16.27,6.7,3.72,6.94,8.55.14,2.86.1,5.75,0,8.62-.15,4.69-5,7.8-9.57,7.3-6.18-.68-12.45-.46-18.67-.68-4.27-.15-5.12,3-5.42,6-1.17,11.68-2.06,23.39-3.05,35.09Z" transform="translate(-25 -25)"/><path class="cls-1" d="M824.17,225.16c5.75,0,11.5-.09,17.24,0,6,.13,11.91.82,17.84.58,3.07-.13,6-1.17,8.8.9a9.1,9.1,0,0,1,2,1.65c1.87,2.49,1.3,15.09-.58,17.62-2.11,2.86-5.25,2.92-8.25,3.18a53,53,0,0,1-7.87,0c-2.73-.18-4.14,1.17-4.62,3.6a44,44,0,0,0-.86,7c-.32,11.44-.54,22.88-.78,34.33-.26,12.19-.54,24.39-.74,36.58-.29,17.32-.22,34.65-.92,51.94a115.32,115.32,0,0,0,.83,17.16c.42,4-3.62,7.38-7.67,7-5.26-.52-10.52-1-15.79-1.48-3.51-.3-5.17-2.34-5-5.95.54-10.14,1.13-20.28,1.47-30.43q.59-17.34.77-34.7.47-39.84.75-79.68c0-4.25-1.33-4.75-5.45-4.57a56.66,56.66,0,0,1-14.76-1.25c-4.06-.93-3.87-5.45-4.31-8.61-.4-2.91.38-6.08,1.13-9,1.05-4.16,3.47-5.81,7.65-5.83C811.43,225.15,817.8,225.16,824.17,225.16Z" transform="translate(-25 -25)"/><path class="cls-1" d="M356.33,25.62c4.07.3,8.14.55,12.21.93,3,.28,4,2.62,3.73,6.43-.28,4.12-.06,8.28.07,12.42.07,2.13.58,4.24.61,6.37.29,22.69.71,45.39.72,68.08,0,20.2-.33,40.4-.76,60.59-.13,6.5-1.41,12.92.65,19.42.91,2.86-1.84,5.7-6.19,6.41a82.86,82.86,0,0,1-14.24,1.1c-5-.05-7.74-3.7-7.86-9.83,0-2.57.63-5.15.61-7.72,0-2.95-.6-5.9-.62-8.85-.09-11.37,0-22.75-.05-34.12-.2-22.94-.56-45.89-.69-68.83,0-7,.65-14,.65-20.93s-.56-14.14-.67-21.22c-.12-8.11,1.93-10.09,9.94-10.1h1.88Z" transform="translate(-25 -25)"/><path class="cls-1" d="M631.79,241.78c0,13.24-.09,26.48.07,39.72,0,3.16,1.41,6.31,1.33,9.45-.15,6.58-.87,13.15-1.33,19.73-.07,1-.06,2-.06,3,0,21.51-.06,43,0,64.51,0,6,.65,11.94.67,17.91,0,8-2.32,11-10.37,10.63-3.62-.19-7.25-.15-10.87,0-3.44.15-4.72-1.93-4.91-4.74-.42-5.94-.71-11.9-.78-17.85-.32-25.08-.49-50.16-.8-75.24-.11-8.46,0-16.95-.86-25.35s0-16.69.66-25.08c.72-8.62-.33-17.39-.51-26.09-.11-5.24,2.53-8,7.83-7.91,5,0,9.93.65,14.89.63,3.49,0,4.23,1.9,4.25,4.69,0,4,0,8,0,12Z" transform="translate(-25 -25)"/><path class="cls-1" d="M882.32,327.55c0-6.25.09-12.5,0-18.74-.17-10.07-.68-20.14-.67-30.2,0-11.6.47-23.19.68-34.78.08-4.39,0-8.79,0-13.18,0-3.8,1.64-5.42,5.4-5.47,4.8-.07,9.61-.21,14.4,0,4,.21,6.32,3.09,6.46,7,.45,12.65,1.37,25.29,1.39,37.93,0,23.81-.38,47.62-.67,71.42-.19,15.07-.54,30.13-.7,45.2a32.72,32.72,0,0,0,.84,9.18c2.41,8.44-2.14,9.61-8.44,10.57-4.39.67-9,.28-13.47.08-3.45-.16-5.18-3.24-5.21-8.81-.05-8.62,0-17.23,0-25.85Z" transform="translate(-25 -25)"/><path class="cls-1" d="M333.22,194.47c-.2,8.88,2.75,12-11.59,11.24-8.32-.47-16.58-1.91-24.89-2.74-4.93-.48-9.88-.76-14.82-.89-6.45-.17-7.9-1.85-6.58-8.11a10.37,10.37,0,0,0,.12-2.23,249.94,249.94,0,0,1,2.92-43.63c1-6.08.94-12.3,1.62-18.43.8-7.31,2-14.59,2.8-21.9.48-4.3.69-8.63.9-13,.31-6.7.29-13.41.82-20.09.78-9.69,1.85-19.35,2.94-29,.59-5.22,1.35-10.43,2.28-15.59.67-3.7,3.29-5.2,6.95-5.13,3,.06,6,0,9,0,6.67.1,9.47,2.67,9.49,9.17,0,4.82-.4,9.65-.75,14.46-.41,5.53-.92,11.06-1.46,16.58-1.21,12.37-2.48,24.73-3.69,37.1-.56,5.76-1,11.54-1.56,17.31-.94,9.42-2.34,18.82-2.81,28.27-.5,10.17-.21,20.37,0,30.56,0,.86,1.67,2.33,2.69,2.45,6.24.71,12.52,1.28,18.8,1.56,5.59.25,6.83,1.33,6.87,7.1C333.23,191.22,333.22,192.84,333.22,194.47Z" transform="translate(-25 -25)"/><path class="cls-1" d="M176.72,64.85c-.42,9.4-.9,18.79-1.23,28.2-.12,3.4.51,6.85.13,10.2-.78,6.78-.47,13.68-3.31,20.23-3.17,7.32-9.05,10.36-16.19,11.76-6.12,1.21-12.33,1.95-18.46,3.14-2.41.46-4,1.82-4,4.87-.12,18.45-.44,36.9-.68,55.35-.06,5.05-1.59,7-6.19,8.71-5.85,2.15-11.81.91-17.68.56-1.37-.09-3.43-2.86-3.69-4.61-.57-3.95-.16-8-.24-12-.19-9.46-.55-18.91-.62-28.36,0-4.7.6-9.4.63-14.1.09-12.87-.06-25.75.06-38.62.08-8.21.46-16.41.73-24.61.23-7.32.61-14.65.71-22,.13-8.52,0-17.05.08-25.57a35.33,35.33,0,0,1,1.06-7.64c.9-3.71,3.39-5.51,7.3-5.34,11.65.53,23.33.65,34.94,1.65,7.22.63,14.15,3.18,19.49,8.43,4.67,4.58,6.18,10.76,6.84,17,.44,4.2.08,8.49.08,12.74ZM150.2,63.5a31.05,31.05,0,0,0,0-4.08c-1.33-9-5.63-12.26-13.43-10.83-2.33.43-3.17,1.65-3.1,4.09.17,6,.06,12,.06,18V87.3c0,8.14-.1,16.28.1,24.4a4.83,4.83,0,0,0,2.3,3.67c3.71,1.37,11,.26,11.86-5.48.81-5.18,1.94-10.37,2.12-15.59.23-6.3-.54-12.62-.58-18.94C149.48,71.17,150,67,150.2,63.5Z" transform="translate(-25 -25)"/><path class="cls-1" d="M257.46,81c0,9.74-.15,19.49.05,29.23.17,8.48-4.49,14.36-10.17,19.6C240.7,136,232,137,223.59,138.27c-2.43.38-5,.12-7.28.93a5.44,5.44,0,0,0-3,3.8c-.56,5.66-.64,11.38-.88,17.08-.26,6.32-.7,12.64-.7,19,0,6.09.46,12.17.69,18.26.41,10.43-3.68,10.45-12,10.67-3.31.09-6.64-.52-10-.66-4.07-.17-5.7-1.6-5.72-5.56-.05-8.25-.1-16.5,0-24.74.18-14.19.37-28.39.79-42.58.18-6.15,1-12.29,1.39-18.44.21-3.38,0-6.79.06-10.19.19-6.19.58-12.39.72-18.59.31-13.57.59-27.14.73-40.71,0-3.57-.63-7.14-.67-10.72-.08-7,3.74-10.94,10.57-10.72,10.9.34,21.91.17,32.66,1.7,9.33,1.33,18.47,4.75,23.53,13.84a22.23,22.23,0,0,1,2.83,9.66C257.69,60.5,257.46,70.75,257.46,81Zm-26,9.75-.22,0c0-2.87.09-5.74,0-8.61s-.7-5.9-.67-8.84c.05-4.57.59-9.14.67-13.71.11-7.57-4.83-12.12-12.41-11.14A5.78,5.78,0,0,0,214.88,52a40.65,40.65,0,0,0-.9,9.51q-.47,24.63-.75,49.28c-.06,4.57,1.67,5.85,6,4.68,2.11-.57,4.19-1.25,6.28-1.88a6.6,6.6,0,0,0,4.93-6.11C230.9,101.88,231.11,96.31,231.43,90.75Z" transform="translate(-25 -25)"/><path class="cls-1" d="M55.82,26.52c3.12,0,6.25,0,9.37,0,4.56,0,7,1.44,8.28,5.7a46,46,0,0,1,1.68,9.34c1.08,11.3,1.85,22.62,3,33.9,1,9.64,2.4,19.24,3.76,28.84,1.39,9.83,3.05,19.61,4.39,29.45,1,6.94,1.5,13.94,2.36,20.9.9,7.31,2.1,14.58,2.88,21.9.73,6.88,1.29,13.79,1.53,20.7.19,5.28-2.66,8.06-7.94,7.7-4-.27-8.18-.65-11.69-2.27-5-2.29-4.58-7.75-5-12.33-.89-9.21-1.47-18.45-2.36-27.66-.32-3.29-1.88-5.43-5.86-5-2.26.25-4.62-.4-6.94-.62s-3.92.88-4.3,3.09a63.24,63.24,0,0,0-.81,8.46c-.32,9.45-.46,18.91-.8,28.36-.22,5.94-3,9-9,10.26-2.38.51-4.77,1-7.16,1.47a5.45,5.45,0,0,1-6.2-5.36c0-4.7.34-9.41.77-14.09.61-6.61,1.68-13.19,2.1-19.81.51-8.18.52-16.4.83-24.6.45-12,.7-24.07,1.56-36.07.88-12.28,2.48-24.51,3.62-36.77,1.11-12.08,2-24.18,3-36.28.54-6.52,3.4-9.21,9.89-9.21Zm3.57,58.27a5.33,5.33,0,0,0-1-3.1c-1-1.08-2.5-2.28-3.85-2.36-.85,0-2.38,1.73-2.63,2.9A57.47,57.47,0,0,0,50.5,93.12c-.18,11.26-.06,22.53-.07,33.79,0,4.76,1.51,6.1,7,6.13,5,0,5,0,5-5.78v-3.75l.28,0c-.34-3.43-.74-6.87-1-10.31" transform="translate(-25 -25)"/></svg>