<svg id="Layer_1" data-name="Layer 1" xmlns="http://www.w3.org/2000/svg" viewBox="0 0 1717.91 187.12"><defs><style>.cls-1{fill:#fff;}</style></defs><path class="cls-1" d="M782,125.09c-.54,3.07-1.53,6.13-1.55,9.2-.15,18.38-.11,36.75,0,55.13,0,2.83.56,5.65.69,8.48.3,6.33-.64,5.68-5.62,6.53-4.61.78-9.48.42-14.21.08-3.31-.24-4.19-2.82-4.18-5.91.07-12.37.13-24.75,0-37.12-.15-15.83-.47-31.66-.73-47.48-.24-14.08-.46-28.16-.76-42.23-.18-8.33-.37-16.66-.79-25-.22-4.29-.9-8.55-1.45-12.82-.46-3.67,1.83-6.67,5.82-7.08s7.9-.47,11.84-.81c5-.43,10-1.21,15.08-1.43,5.87-.24,8.42,2.29,9.28,8.06s2.09,11.56,3,17.36c.88,6,1.44,11.94,2.3,17.9.93,6.42,2,12.81,3.07,19.21a16.09,16.09,0,0,1,.61,3.2c-.19,3.49,1.07,5.72,4.75,6.14,5-2.86,3.76-8.09,4.15-12.33.95-10.24,1-20.55,1.7-30.82.51-7.61,1.44-15.19,2.21-22.78.42-4.11,2.38-6,6.48-6,9.14-.05,18.29.16,27.43-.1,3.65-.1,5.33,1.11,6.53,5.51a7.26,7.26,0,0,1,0,1.87c.25,20.7.54,41.4.74,62.1.29,29.58.49,59.16.79,88.73.05,4.58.62,9.15.69,13.73.08,5.48-1.94,7.4-7.29,7.42-3,0-6-.18-9,0-3.4.26-5.56-.66-5.74-4.42-.07-1.35-.43-2.68-.43-4,0-21,0-42,0-63a35.43,35.43,0,0,0-.84-8.43c-.38-1.54-2-2.77-3-4.15-1.2,1.1-3.17,2-3.45,3.33A120.59,120.59,0,0,0,828.38,136q-1.89,18.18-3.69,36.36c-.37,3.82-.5,7.65-.83,11.47-.46,5.15-.82,10.32-1.59,15.43-.54,3.66-3.91,4.3-6.76,4.52a128.13,128.13,0,0,1-13.86.07c-3.35-.1-5.75-2.85-6.29-6.6-1.71-11.89-4.22-23.72-5-35.67a192.75,192.75,0,0,0-4.06-28.8,79.19,79.19,0,0,0-2.61-7.94Z" transform="translate(-33.04 -23.44)"/><path class="cls-1" d="M895.88,150q0,22.05,0,44.1a11.07,11.07,0,0,0,.47,2.52c1.14,4.75-.93,7.52-5.89,8.07a67.48,67.48,0,0,0-7.59,1.26c-4.77,1.1-8.64-1.8-8.76-6.76-.27-11.2-.46-22.4-.76-33.6-.47-17.4-1.06-34.8-1.47-52.21-.36-14.82-.51-29.65-.78-44.48-.22-12.07-.53-24.15-.73-36.22-.08-4.91.84-5.5,5.84-5.83,8.61-.58,17.19-1.6,25.79-2.15,4.81-.3,6.48,1.87,8.25,6.56,3.61,9.6,3.18,19.8,5.09,29.63,1.84,9.48,3.38,19,5.36,28.46.51,2.45,1.21,6.17,4.68,5.61,3.28-.54,3.18-4.17,3.46-6.9.8-7.72,1.51-15.45,2.22-23.18.12-1.24,0-2.5,0-3.75.33-7.33.6-14.67,1.06-22a65.7,65.7,0,0,1,1.24-8.71,6.87,6.87,0,0,1,7.08-5.77c6.12-.05,12.25,0,18.37,0,3.27,0,6.55-.13,9.81,0,3.88.2,5.26,1.69,5.17,5.66-.1,4.82-.68,9.65-.64,14.47,0,5.18.57,10.37.93,15.55.09,1.35.47,2.68.48,4,0,15.13-.06,30.25,0,45.38.05,6.57.71,13.15.67,19.72-.11,16.71-.51,33.41-.66,50.11,0,4.2.62,8.4.65,12.6a40.7,40.7,0,0,1-.93,7.67c-.55,2.9-2.11,4.45-5.44,4.13a60,60,0,0,0-10.12,0c-3.19.23-4.78-1.5-5.09-4.15a81.89,81.89,0,0,1-.11-9.79c0-7.12.08-14.25,0-21.37q-.29-20.75-.78-41.48c-.06-2.28.45-5.27-3.08-5.73-2.54-.34-5.61,2.77-5.85,5.93-.81,10.6-1.33,21.21-2.33,31.79-1,10.14-2.41,20.25-3.61,30.37-.32,2.69-.45,5.4-.85,8.08-.66,4.41-2.42,6.05-7,6.25a77.25,77.25,0,0,1-12.73-.13,6,6,0,0,1-4.08-3.7c-2-10.32-3.65-20.72-5.41-31.09-1-5.79-2.09-11.56-3-17.37s-1.49-11.68-2.29-17.52a74.49,74.49,0,0,0-1.59-9c-.35-1.33-1.66-2.4-2.53-3.6-.87,1.32-2.46,2.62-2.5,4C895.76,133.54,895.88,141.75,895.88,150Z" transform="translate(-33.04 -23.44)"/><path class="cls-1" d="M1084.16,177.48c-1.68-12.5-3.5-25.65-5.18-38.82-.68-5.38-1-10.8-1.59-16.19-1-8.92-2.18-17.83-2.86-26.77-.44-5.72.24-11.52-.2-17.24q-1.49-18.94-3.68-37.85c-.7-6,3-10.82,9.09-10.75,6.93.09,13.79,0,20.55-2,4.23-1.28,10,2.33,10.89,6.53q3.46,16.49,6.71,33c2.33,12,4.37,24.06,6.82,36,1.51,7.4,3.54,14.69,5.35,22a5.69,5.69,0,0,0,.86,2.39c.87,1,2,2.28,3.08,2.33.82,0,2.38-1.62,2.46-2.61a157.47,157.47,0,0,0,.67-17.76c-.23-5.75-1.31-11.47-2-17.2-1-8.92-2.06-17.84-2.93-26.77-.45-4.68-.43-9.41-.87-14.09-.51-5.37-1.35-10.71-1.93-16.08-.25-2.34-.68-4.85-.08-7a6.12,6.12,0,0,1,3.77-3.81,60.45,60.45,0,0,1,11.81-.89c4.5,0,5.66,1.93,5.91,5.8.46,6.94.29,13.92.88,20.84.67,7.83,2,15.6,2.82,23.41.67,6.13,1,12.3,1.62,18.44,1,10.55,2.14,21.09,2.91,31.65.55,7.43.39,14.91.87,22.35.85,13.06,2,26.1,2.9,39.16a75.8,75.8,0,0,1,0,10.11c-.18,2.86-2,4.3-4.89,4.47q-11.48.68-22.94,1.49c-7.62.54-11.19-2.44-12.63-10.08-1.68-8.86-3.78-17.64-5.48-26.5-1.8-9.37-3.09-18.84-5.08-28.17-1.59-7.48-3.8-14.84-5.92-22.2a101.6,101.6,0,0,0-3.85-10.64,3.62,3.62,0,0,0-2.39-2c-.57-.08-1.78,1.25-1.94,2.09a22.94,22.94,0,0,0-.51,6.49c.48,5.25,1.38,10.46,1.91,15.71,1.07,10.41,2,20.84,3,31.27.32,3.45.49,6.9.8,10.35.73,8.1,1,16.29,2.4,24.27,2.27,12.56-3.19,12-11.06,13.12-.85.12-1.75-.07-2.62,0-5.44.61-7.24-3.25-7.4-7C1084,191.65,1084.16,184.94,1084.16,177.48Z" transform="translate(-33.04 -23.44)"/><path class="cls-1" d="M1594.23,115.33c1.19,8.14,2.48,16.27,3.53,24.43,1,7.45,2.1,14.91,2.35,22.39.35,10.51.86,20.95,3,31.27,1.48,7,.17,8.88-7,10.58a57.67,57.67,0,0,1-6.45,1.33c-5.12.61-7.57-1.94-8.14-9-1.13-13.91-1.93-27.85-3.09-41.76-.77-9.19-2-18.35-2.9-27.53-.62-6.26-.93-12.56-1.58-18.82-.85-8.06-1.89-16.11-2.85-24.16-.29-2.45-.64-4.89-.83-7.34-1-13-2.16-26.09-3-39.15-.35-5.49.71-6.58,6-6.19,6.42.46,12.41-1.18,18.53-2.55a27.36,27.36,0,0,1,9.25-.35c5.93.76,6.92,5.89,8,10.47,1.26,5.22,2.13,10.54,3.1,15.83,1.28,7.09,2.31,14.23,3.79,21.28,1.73,8.23,4,16.36,5.71,24.6,1.34,6.47,2,13.06,3.3,19.55a30,30,0,0,0,2.77,7.91,4.83,4.83,0,0,0,3.64,2c.84,0,2.4-1.65,2.45-2.62a124.81,124.81,0,0,0,0-13.54c-.27-4.92-.85-9.82-1.42-14.71-1.18-10.13-2.53-20.24-3.64-30.37-.69-6.26-1-12.55-1.62-18.82-.34-3.66-1.19-7.31-1.23-11a38.46,38.46,0,0,1,1.17-10.87c.44-1.53,2.87-3,4.67-3.52,2.55-.77,5.37-.56,8-.94,4.17-.58,6.6,1.9,7.44,5.23,1.76,6.86,3.4,13.79,1.85,21.08-.54,2.54.4,5.37.56,8.07.78,13,1.44,26,2.3,38.93.62,9.49,1.44,19,2.23,28.43,1.22,14.76,2.37,29.52,3.79,44.26.68,6.94,2,13.83,2.89,20.75.81,6.21-3,9.75-8.19,9.7-8.14-.08-16.29.83-24.43,1.33-2.92.18-6-2.64-7-6.79-3-11.93-6.3-23.81-8.89-35.84-2.67-12.41-4.53-25-7-37.47a111.29,111.29,0,0,0-3.84-13.72,6.62,6.62,0,0,0-3.11-3.35c-1.81-.9-3.49-.42-3.49,2.17v8.62Z" transform="translate(-33.04 -23.44)"/><path class="cls-1" d="M466.53,178c0-6.75,0-13.5,0-20.25.23-28.2.65-56.4.66-84.6,0-10.65-1.11-21.3-1.31-32a24.64,24.64,0,0,1,2.05-9.93c.64-1.48,3.38-2.81,5.21-2.87,5.19-.17,10.4.51,15.6.54a102.54,102.54,0,0,0,11.48-.71A37.55,37.55,0,0,1,522,32.61a25.87,25.87,0,0,1,13.55,19.07c1.07,6.2,1,12.36,1,18.67-.1,23,.49,46.06,1.43,69.06a105.73,105.73,0,0,1-.71,20.2c-.73,4.92,0,10.18.77,15.17,1,6.38.36,11.83-3.59,17.4s-7.9,10.44-13.59,13.75a22,22,0,0,1-9.59,3c-5.8.29-11.64-.55-17.47-.54-6.45,0-12.9.51-19.35.67-4.64.11-6.59-1.47-7.09-6s-.64-8.88-.78-13.33C466.44,185.79,466.53,181.91,466.53,178Zm27-10.42h.75c0,4.75-.25,9.52.12,14.24.15,1.83,1.27,4.35,2.72,5.15,3.71,2.05,10.19-.75,11.59-4.85a31.17,31.17,0,0,0,2-9.62c.08-7.7-.49-15.4-.62-23.11-.31-18.82-.59-37.65-.73-56.47,0-4.95.66-9.91.65-14.86,0-5.32-.41-10.65-.7-16-.62-11.44-1.4-11.51-11.78-11.34-3.46.06-5.14,1.9-5,5.27.37,10.8.87,21.6,1,32.41.18,12.52.05,25,.05,37.56Z" transform="translate(-33.04 -23.44)"/><path class="cls-1" d="M1487.7,154.05c0-15.07.47-30.17-.15-45.22-.46-11.16-2.81-22.23-3.39-33.39-.44-8.19-.86-16.43,1.49-24.71,2-7.11,4.4-13.55,10.28-18.21A36.75,36.75,0,0,1,1515,24.66a46.89,46.89,0,0,1,26.22,4.64c8,4,13.49,10.41,13.93,19.79.52,10.94.49,21.9.83,32.85.42,13.28,1.17,26.55,1.44,39.84.42,20.2.93,40.41.48,60.6-.1,4.33-3.79,8.83-6.5,12.78-5.56,8.1-14.34,9.93-23.31,10.08a129.7,129.7,0,0,1-22.54-1.56,17.27,17.27,0,0,1-12.24-9.23,35.11,35.11,0,0,1-3.93-13.55c-.6-8.91-.18-17.9-.18-26.85ZM1529,66.12h-.75V56c0-7.28,0-7.28-7.06-9-4.71-1.16-8,1.29-7.93,6.14q.33,35.37.75,70.72.3,24.87.77,49.73a28.21,28.21,0,0,0,.89,8,5.82,5.82,0,0,0,3.8,3.25c2.06.42,4.36-.24,6.55-.48,4.13-.45,5.3-1.7,5.21-5.95q-.29-14.18-.74-28.35c-.45-13.66-1.2-27.3-1.43-41C1528.76,94.77,1529,80.44,1529,66.12Z" transform="translate(-33.04 -23.44)"/><path class="cls-1" d="M678.54,162.41c-.56-13.27-1.34-26.53-1.63-39.8-.28-12.8,0-25.61-.09-38.42-.1-10.44-.12-20.91-.83-31.32-.59-8.79,3.19-15.23,9.71-20.07,7.48-5.54,16.24-9.25,25.51-8.71,10.23.6,20.34,3.13,28.12,10.85a16.81,16.81,0,0,1,5,11.54c.27,6.39,0,12.8.1,19.19.13,6.7.56,13.39.7,20.09.31,14.82.5,29.64.78,44.45q.32,16.42.76,32.84c.15,5.72.44,11.43.73,17.15.55,10.83-8.5,22.32-19.16,23.59a155.7,155.7,0,0,1-22.91,1.44c-11.34-.36-23.43-6.56-25.85-19.78-1.37-7.51-1-15.33-1.47-23Zm41.07-99.28-.53,0c-.32-4.32-.49-8.65-1.09-12.93a4.2,4.2,0,0,0-2.59-2.93,33.75,33.75,0,0,0-9,0c-1,.14-2.34,1.92-2.45,3-.5,5.17-.81,10.38-.81,15.58s.53,10.14.68,15.22c.3,10.69.53,21.38.76,32.08.26,12.06.49,24.13.76,36.2q.33,14.53.76,29.08c.15,4.69,2,7.2,5.57,8s6.47-1.18,8.09-5.67a20.21,20.21,0,0,0,1.27-6.78q-.21-25.78-.71-51.56c-.15-8.45-.61-16.89-.7-25.34C719.51,85.77,719.61,74.45,719.61,63.13Z" transform="translate(-33.04 -23.44)"/><path class="cls-1" d="M1026.72,167c1.14-12.91,2.33-25.82,3.39-38.74.41-5.06.5-10.15.79-15.22q1.11-19.65,2.25-39.29.76-13.55,1.5-27.08c.25-4.7.48-9.4.75-14.1.22-3.62,2.12-5.61,6.78-5.58a115.3,115.3,0,0,1,16.15,1.49c3.08.46,4.68,4.86,4.05,8.94A120.25,120.25,0,0,0,1061,50.21c-.41,8.82-.37,17.66-.85,26.47-.54,9.86-1.53,19.69-2.19,29.55-.59,8.89-1.11,17.79-1.49,26.69-.59,14-.92,28.05-1.55,42.07-.72,15.8-9.74,25.38-20.75,29.16a31.25,31.25,0,0,1-18.77.64c-2.48-.66-5.13-.58-7.69-.92-16.76-2.27-23.13-14-22.52-27.55.43-9.53,1-19,1.49-28.57.32-7.07.51-14.15.76-21.22.5-14,.94-28,1.52-42.07.39-9.16.87-18.31,1.52-27.45.59-8.35,1.25-16.71,2.3-25,.57-4.62,3.25-7.08,7.87-7.29a100.33,100.33,0,0,1,14.06.7c2.82.28,4.38,2.2,4.21,5.1-.69,12.1-1.49,24.2-2.16,36.3-.18,3.24,0,6.5-.08,9.75-.46,12.4-.87,24.8-1.53,37.19-.57,10.73-1.53,21.44-2.19,32.17-.59,9.64-1.15,19.29-1.43,29a17.3,17.3,0,0,0,1.64,7.43c.9,2,2.61,3.24,5.44,2.28,7.13-2.41,8.26-3.78,8.57-12.33.07-1.75,0-3.5,0-5.25Z" transform="translate(-33.04 -23.44)"/><path class="cls-1" d="M640.1,161c0-5.75,0-11.5,0-17.25,0-4.6,2.77-7.33,7.3-7.34,3.5,0,7,0,10.5,0,6.64,0,9.84,2.67,9.86,9.4q0,19.61-.81,39.22c-.11,2.5-1.59,5.22-3.14,7.32-6.43,8.71-14.41,14.46-26,13.91-9.61-.44-19.1-.55-28.24-4.4a15.65,15.65,0,0,1-9.83-11.89c-.79-3.7-.69-7.62-.85-11.44-.54-12.9-1-25.81-1.54-38.7-.41-9.16-1.25-18.3-1.43-27.46-.41-21.32-.61-42.64-.77-64,0-7.53,7.1-16.84,14.09-19.64,7.84-3.14,15.65-5.2,24.3-5.09,7.8.11,13.85,3.38,20,7.23,5,3.09,7.52,8,10.24,12.78a11.39,11.39,0,0,1,1,5.36c.08,11,.05,22,0,33,0,6.34-2.27,8.51-8.64,8.64-3.57.07-7.13.44-10.71.59-3,.12-5.19-2.35-5.37-6.24-.32-6.7-.39-13.41-.82-20.1-.28-4.28-1-8.53-1.59-12.78-.39-2.75-2.07-4.23-4.78-4.88-6.53-1.57-10.8,1.63-10.83,8.31,0,7-.1,14,0,21,.12,6.57.59,13.14.69,19.72.13,8-.15,16,.08,24,.33,12,1,24,1.46,36.08.25,6.07.45,12.15.77,18.22a42.31,42.31,0,0,0,.89,8.05A3.92,3.92,0,0,0,628.9,185c2.68.11,5.65.19,8-.87,1.54-.7,3-3.33,3.07-5.19C640.34,173,640.1,167,640.1,161Z" transform="translate(-33.04 -23.44)"/><path class="cls-1" d="M1235.67,73.25V93.88c0,15.27-.19,30.54.06,45.8q.32,18.81,1.53,37.58c.41,6.54,3.48,8.84,7,8.63,5.51-.33,8.67-3.6,8.68-9.32,0-10.87,0-21.75,0-32.63,0-4.77,2.17-7.32,6.93-7.53s9.75-.15,14.62,0c3.21.09,5.37,2.78,5.41,7.09.12,13.28.18,26.56,0,39.83-.08,4.89-2.61,8.82-5.75,12.7-6.49,8-14.92,10.25-24.6,10.13-7.42-.09-14.76,0-22-2.19-8-2.44-15.77-10.32-15.84-19.45-.08-10-.43-19.91-.72-29.85-.47-16.16-.92-32.32-1.54-48.46-.18-4.54-1.14-9-1.34-13.58-.14-3.05.55-6.13.64-9.21a73.57,73.57,0,0,0-.11-11.31,99.25,99.25,0,0,1,1-30.63,11.28,11.28,0,0,1,3.08-5.21A38.6,38.6,0,0,1,1238.13,24c5.42-.43,11.39-1.13,16.29.61,11,3.91,20.47,10.39,23.25,22.9.85,3.83.58,7.9.79,11.87s.46,8.16.55,12.25c.11,4.61.24,9.24,0,13.84-.15,3.47-3.06,4.79-5.83,5a131.51,131.51,0,0,1-15.76.16c-3.39-.14-4.31-3-4.47-5.75-.41-6.81-.43-13.65-.85-20.47a66.3,66.3,0,0,0-1.6-12c-1.08-4.28-7.3-7.22-11.43-5.8-2,.71-3.55,1.88-3.49,4.59C1235.79,58.5,1235.67,65.88,1235.67,73.25Z" transform="translate(-33.04 -23.44)"/><path class="cls-1" d="M1670.38,176.16c.64-9.35,1.18-18.25,1.88-27.14.34-4.25,3.1-6.59,7.35-6.66,5.45-.1,10.74-.05,15.5,3.5,3.85,2.87,4.89,4.8,4,9.52-.68,3.74-1.07,7.54-1.39,11.34-.37,4.31-.52,8.65-.78,13-.14,2.18.67,3.55,2.94,4,2,.38,4.12,1.55,6,1.26,3.36-.5,5.82-2,6.24-6.36.54-5.54,2.88-10.9,3.43-16.44,1.08-10.79-3.52-20.19-8.91-29-5.84-9.61-12.45-18.75-18.36-28.31-6.33-10.23-11.36-21-10.08-33.55.7-6.83,1.73-13.62,2.62-20.43a7.11,7.11,0,0,0,.32-1.43c-.94-9.61,5.2-15.25,12.08-19.74,7.17-4.68,15.28-6.31,24.16-5.27,6.75.8,13,2.38,18.82,5.65,6.48,3.68,12.4,8.19,14.06,16.09a39.37,39.37,0,0,1,.62,8.82c-.12,6.83-.53,13.65-.68,20.48-.15,6.33-2.89,9.49-9.28,9.92a94.83,94.83,0,0,1-11.68,0c-4.4-.26-6.65-2.83-6.71-8.44-.06-4.77.87-9.54,1.15-14.33a67.89,67.89,0,0,0,.09-11.58c-.35-3.08-2.93-4.92-5.94-5.19-3.5-.31-8.33,2.75-8.85,5.43-2.21,11.42-3.67,22.9-.61,34.4.54,2,2,3.85,3.15,5.69,2.76,4.37,5.6,8.69,8.41,13,5.44,8.41,11.6,16.46,16.14,25.34a45.82,45.82,0,0,1,4.52,30c-.93,4.82-.66,9.88-.91,14.83-.4,7.89-1.27,15.56-6.73,22-3.67,4.32-8,7.81-13.58,7.95a207.26,207.26,0,0,1-28.75-.81c-8.38-1-14.86-6.56-18.71-13.68C1669.86,186.09,1670.79,180.55,1670.38,176.16Z" transform="translate(-33.04 -23.44)"/><path class="cls-1" d="M1318.35,24.92c3.31-.36,6.62-.66,9.92-1.07,5.25-.64,10.67,4.2,11,9.45,1,18.42,1.7,36.83,6.42,54.89,1.87,7.17,1.73,14.88,2.55,22.34.72,6.47,1.44,13,2.28,19.41.91,7.05,2,14.08,3,21.12,1.5,10.69,3.09,21.37,4.42,32.07a120.83,120.83,0,0,1,.79,13.72c.06,4.87-2.23,7.19-7,7A62.88,62.88,0,0,1,1340,202.3c-3.94-1-5.67-4.36-6-8.05-.74-7.88-1.07-15.79-1.59-23.69-.22-3.21-.43-6.41-.78-9.6s-5.63-5.51-11.77-5c-4,.31-5.35,1.51-5.48,5.41-.08,2.45-.54,4.89-.7,7.34-.65,9.81-1.14,19.63-2,29.42-.14,1.61-1.35,4-2.67,4.5a50.76,50.76,0,0,1-12.22,3.37c-3.4.44-5.82-2.35-5.62-5.78.64-11.48,1.47-22.95,2.19-34.42q.45-7.23.76-14.48c.29-7.32.3-14.66.81-22,.81-11.81,2-23.6,2.92-35.41.32-3.94.56-7.89.77-11.85.77-14.6,1.45-29.2,2.32-43.8a40.59,40.59,0,0,1,1.6-8.64c1.23-4.25,5.12-4.52,8.61-5a54.51,54.51,0,0,1,7.12-.06Zm2.38,51.93-1.88.14c-.72,2.13-1.92,4.22-2.08,6.39-.49,6.8-.8,13.63-.78,20.45,0,7.94.61,15.87.61,23.81,0,3.3,1.1,4.81,4.35,5,5.45.29,6.86-.21,6.85-4.17,0-7.41-.39-14.85-1.13-22.22s-2-14.55-3.31-21.77C1322.89,81.85,1321.63,79.38,1320.73,76.85Z" transform="translate(-33.04 -23.44)"/><path class="cls-1" d="M418.53,163.15c0,4.88,0,9.75,0,14.62.06,5.86,1.5,7.18,7.16,7.3,5.83.14,11.71,0,17.46.87,4.72.68,8.46,2.86,8.37,8.9,0,1.12-.08,2.25,0,3.37.59,7.2-2.36,9.14-9.32,9.19-11.15.07-22.3-.88-33.46-1.32a105.35,105.35,0,0,0-11.24,0c-5.31.37-7.18-4.1-6.68-8.41.22-1.82.58-3.64.66-5.47.79-16.6,1.43-33.2,2.32-49.79.56-10.49,1.56-21,2.17-31.43.43-7.44.59-14.9.77-22.35.3-12,.47-23.9.78-35.85a140.28,140.28,0,0,1,.82-15.22c1.27-9.28,4.25-10.76,13.65-9.91,3.91.35,7.8,1,11.72,1.33,10.34.83,20.69,1.49,31,2.32,2.73.22,3.75,2.16,3.5,4.7-.42,4.14-.79,8.31-1.53,12.4-.65,3.51-2.78,5.77-6.69,5.34s-7.76-1.14-11.65-1.6a34.15,34.15,0,0,0-7.72-.51c-4.36.5-5.07,1.81-5.42,6.55-.64,8.48-1.63,16.93-2.13,25.42a40.69,40.69,0,0,0,.9,10.31c.66,3.31,5.85,5.13,10.16,4.63a74,74,0,0,1,13.39-.4c4.16.28,6.69,3.72,6.93,8.55.14,2.87.11,5.75,0,8.62-.15,4.69-4.95,7.8-9.57,7.3-6.17-.67-12.44-.45-18.67-.68-4.26-.15-5.12,3-5.42,6-1.16,11.69-2.05,23.4-3.05,35.1Z" transform="translate(-33.04 -23.44)"/><path class="cls-1" d="M1394.29,24.59c5.75,0,11.5-.09,17.24,0,6,.13,11.91.82,17.84.58,3.07-.13,6-1.17,8.81.9a9.65,9.65,0,0,1,2,1.65c1.87,2.49,1.29,15.09-.58,17.62-2.12,2.86-5.25,2.92-8.26,3.18a51.56,51.56,0,0,1-7.86,0c-2.74-.18-4.15,1.18-4.62,3.6a41.78,41.78,0,0,0-.86,7c-.32,11.44-.54,22.89-.78,34.33-.26,12.19-.55,24.39-.75,36.58-.28,17.32-.21,34.65-.92,51.94a115.32,115.32,0,0,0,.83,17.16c.43,4-3.62,7.39-7.66,7-5.27-.51-10.53-1-15.8-1.48-3.5-.3-5.17-2.34-5-5.95.55-10.14,1.14-20.28,1.48-30.42q.58-17.35.76-34.71.46-39.84.76-79.68c0-4.25-1.33-4.75-5.45-4.57a56.74,56.74,0,0,1-14.77-1.25c-4-.93-3.86-5.45-4.3-8.61-.41-2.9.37-6.08,1.12-9,1.06-4.16,3.47-5.81,7.65-5.83C1381.55,24.58,1387.92,24.59,1394.29,24.59Z" transform="translate(-33.04 -23.44)"/><path class="cls-1" d="M364.38,27.37c4.06.31,8.14.55,12.2.94,3,.28,4,2.61,3.74,6.42-.28,4.12-.06,8.28.07,12.42.07,2.13.58,4.24.6,6.37.3,22.69.71,45.39.73,68.09,0,20.19-.34,40.39-.76,60.58-.14,6.5-1.42,12.93.65,19.42.91,2.87-1.84,5.71-6.2,6.42a83.66,83.66,0,0,1-14.23,1.09c-5-.05-7.74-3.7-7.86-9.83-.05-2.57.62-5.15.61-7.72,0-2.95-.61-5.9-.63-8.85-.08-11.37.05-22.74-.05-34.11-.19-23-.56-45.89-.69-68.84,0-7,.65-14,.65-20.92s-.55-14.15-.66-21.23c-.13-8.11,1.93-10.09,9.94-10.09h1.87Z" transform="translate(-33.04 -23.44)"/><path class="cls-1" d="M1201.92,41.21c0,13.24-.09,26.48.07,39.72,0,3.16,1.4,6.31,1.33,9.45-.16,6.58-.87,13.15-1.34,19.73-.07,1-.06,2-.06,3,0,21.5-.06,43,0,64.5,0,6,.66,11.94.67,17.91,0,8-2.31,11-10.37,10.63-3.61-.19-7.25-.15-10.87,0-3.44.15-4.71-1.93-4.91-4.74-.42-5.94-.71-11.9-.78-17.85-.31-25.08-.49-50.16-.8-75.24-.11-8.45,0-16.95-.85-25.35s0-16.69.66-25.08c.72-8.62-.34-17.39-.52-26.09-.1-5.24,2.54-8,7.83-7.91,5,.05,9.93.65,14.9.63,3.48,0,4.22,1.91,4.25,4.69,0,4,0,8,0,12Z" transform="translate(-33.04 -23.44)"/><path class="cls-1" d="M1452.45,127c0-6.25.09-12.49,0-18.74-.18-10.07-.69-20.14-.68-30.2,0-11.6.47-23.19.69-34.78.08-4.39,0-8.79,0-13.18.06-3.8,1.65-5.42,5.4-5.47,4.81-.06,9.62-.21,14.41,0,4,.21,6.31,3.09,6.45,7,.45,12.65,1.37,25.29,1.4,37.93,0,23.81-.39,47.62-.68,71.42-.19,15.07-.54,30.13-.7,45.2a32.65,32.65,0,0,0,.84,9.18c2.41,8.44-2.14,9.61-8.44,10.57-4.39.67-9,.29-13.46.08-3.45-.16-5.19-3.23-5.22-8.81,0-8.61,0-17.23,0-25.85Z" transform="translate(-33.04 -23.44)"/><path class="cls-1" d="M341.27,196.22c-.21,8.89,2.74,12-11.59,11.24-8.32-.46-16.59-1.91-24.9-2.73-4.92-.49-9.87-.77-14.82-.9-6.45-.16-7.9-1.85-6.58-8.11a9.2,9.2,0,0,0,.12-2.23,250.91,250.91,0,0,1,2.92-43.63c1-6.08.95-12.3,1.62-18.42.81-7.32,2-14.59,2.8-21.91.49-4.29.7-8.63.9-13,.32-6.69.29-13.41.83-20.08.77-9.69,1.85-19.36,2.94-29,.59-5.22,1.34-10.42,2.28-15.59.66-3.7,3.29-5.19,6.94-5.12,3,.05,6,0,9,0,6.66.1,9.47,2.66,9.48,9.16,0,4.82-.39,9.65-.74,14.47-.41,5.53-.93,11-1.46,16.57-1.21,12.37-2.48,24.73-3.69,37.1-.56,5.77-1,11.54-1.57,17.31-.93,9.43-2.34,18.83-2.8,28.27-.5,10.17-.21,20.38,0,30.56,0,.87,1.67,2.34,2.68,2.45,6.25.71,12.52,1.28,18.8,1.57,5.6.25,6.84,1.32,6.88,7.1C341.28,193,341.27,194.6,341.27,196.22Z" transform="translate(-33.04 -23.44)"/><path class="cls-1" d="M184.76,66.6c-.42,9.4-.9,18.8-1.22,28.2-.12,3.4.51,6.85.13,10.21-.78,6.77-.47,13.67-3.32,20.23-3.17,7.31-9,10.35-16.18,11.76-6.12,1.2-12.33,1.95-18.46,3.13-2.42.47-4,1.82-4,4.87-.12,18.45-.45,36.9-.68,55.35-.07,5.05-1.6,7-6.19,8.72-5.86,2.14-11.82.9-17.68.55-1.38-.08-3.44-2.86-3.69-4.61-.57-3.94-.16-8-.24-12-.2-9.45-.55-18.9-.62-28.35,0-4.7.59-9.4.63-14.11.09-12.87-.06-25.75.06-38.62.08-8.2.46-16.4.72-24.6.24-7.33.61-14.65.72-22,.12-8.52,0-17.05.08-25.57a35.24,35.24,0,0,1,1.06-7.63c.89-3.71,3.39-5.52,7.29-5.34,11.65.53,23.34.65,35,1.65,7.22.62,14.15,3.17,19.49,8.42,4.67,4.58,6.18,10.76,6.83,17,.44,4.2.09,8.49.09,12.74Zm-26.52-1.34a33.46,33.46,0,0,0,0-4.09c-1.33-9-5.63-12.26-13.43-10.82-2.33.43-3.18,1.64-3.11,4.09.18,6,.06,12,.06,18q0,8.3,0,16.59c0,8.13-.11,16.27.1,24.4a4.79,4.79,0,0,0,2.29,3.66c3.72,1.37,11,.26,11.86-5.47.81-5.19,1.94-10.38,2.13-15.59.23-6.3-.54-12.63-.58-18.94C157.52,72.92,158,68.73,158.24,65.26Z" transform="translate(-33.04 -23.44)"/><path class="cls-1" d="M265.51,82.75c0,9.74-.15,19.49,0,29.23.18,8.48-4.48,14.37-10.17,19.6-6.64,6.13-15.29,7.14-23.74,8.44-2.43.38-5,.12-7.29.93a5.46,5.46,0,0,0-3,3.8c-.57,5.67-.65,11.38-.89,17.08-.26,6.32-.69,12.65-.69,19,0,6.09.45,12.18.69,18.27.4,10.42-3.69,10.44-12.05,10.67-3.31.09-6.64-.53-10-.67-4.06-.17-5.69-1.6-5.72-5.56,0-8.25-.1-16.49,0-24.74.18-14.19.36-28.39.78-42.58.18-6.15,1-12.28,1.4-18.44.2-3.38,0-6.79.06-10.18.19-6.2.58-12.4.72-18.6.31-13.56.58-27.13.73-40.7,0-3.57-.64-7.15-.67-10.72-.08-7,3.74-10.95,10.57-10.73,10.9.35,21.9.17,32.65,1.7,9.34,1.33,18.48,4.75,23.53,13.84A22.42,22.42,0,0,1,265.38,52C265.73,62.25,265.51,72.51,265.51,82.75Zm-26,9.75h-.23c0-2.87.1-5.75,0-8.61s-.71-5.9-.67-8.85c.05-4.57.59-9.13.66-13.7.12-7.57-4.83-12.13-12.4-11.15a5.81,5.81,0,0,0-3.9,3.52,40.7,40.7,0,0,0-.89,9.51q-.47,24.65-.76,49.28c-.05,4.57,1.67,5.85,6,4.69,2.11-.57,4.19-1.26,6.29-1.88a6.61,6.61,0,0,0,4.93-6.12C239,103.64,239.15,98.06,239.48,92.5Z" transform="translate(-33.04 -23.44)"/><path class="cls-1" d="M63.86,28.28c3.13,0,6.25,0,9.38,0,4.55,0,7,1.44,8.28,5.7a46.64,46.64,0,0,1,1.68,9.35c1.08,11.29,1.85,22.62,3,33.9,1,9.63,2.41,19.23,3.76,28.83,1.39,9.83,3,19.62,4.4,29.45.95,7,1.5,13.94,2.36,20.9.89,7.31,2.1,14.58,2.88,21.9.73,6.88,1.28,13.79,1.53,20.7.19,5.29-2.66,8.06-7.94,7.7-4-.27-8.18-.65-11.69-2.26-5-2.3-4.58-7.75-5-12.34-.88-9.21-1.46-18.45-2.35-27.66-.32-3.29-1.89-5.42-5.86-5-2.27.24-4.62-.41-6.94-.62s-3.92.87-4.3,3.09a61.34,61.34,0,0,0-.81,8.46c-.32,9.45-.46,18.9-.81,28.35-.21,5.94-3,9-9,10.27q-3.57.75-7.16,1.46A5.45,5.45,0,0,1,33,205.11c0-4.7.35-9.41.78-14.09.61-6.61,1.68-13.19,2.09-19.8.52-8.19.52-16.4.83-24.6.46-12,.71-24.08,1.57-36.08.88-12.28,2.48-24.5,3.61-36.76C43,61.69,44,49.59,45,37.49c.54-6.52,3.4-9.2,9.89-9.21Zm3.58,58.27a5.38,5.38,0,0,0-1-3.1c-1-1.09-2.51-2.29-3.85-2.36C61.78,81,60.26,82.82,60,84a56.68,56.68,0,0,0-1.46,10.89c-.18,11.27-.06,22.53-.07,33.8,0,4.76,1.51,6.09,7.05,6.12,5,0,5,0,5-5.78v-3.74l.29,0c-.35-3.44-.74-6.88-1-10.32" transform="translate(-33.04 -23.44)"/></svg>