<svg id="Layer_1" data-name="Layer 1" xmlns="http://www.w3.org/2000/svg" viewBox="0 0 700 700"><defs><style>.cls-1{fill:#fff;}</style></defs><path class="cls-1" d="M511.71,862C318.06,862,161.93,705,162,510.42c.07-193,157.59-348.52,352.89-348.42,192.37.1,347.27,158.15,347.11,354.16C861.85,705.73,703.56,862,511.71,862ZM736.06,476.24c4.28-.13,8.41-.37,12.49-2.28,12-5.63,18.52-14.89,19.21-28.06.75-14.35-6-24.46-18.25-31.41-63.09-35.89-131.84-53.34-203.21-62-56.4-6.86-112.83-7.21-169.25,0-28.83,3.67-57.51,8.31-85.06,17.92-15,5.23-24,21-21.18,35.41,3.18,16.36,16,26.74,32.68,26.87,8.8.07,16.64-3.59,24.93-5.51,66.55-15.45,133.73-18,201.57-10.91,67.39,7,132,22.86,191.19,57C725.88,476,730.89,476.3,736.06,476.24ZM454,468.1c-19.36-.85-38.55.65-57.7,2.81a475.93,475.93,0,0,0-81.53,16.26c-12.57,3.71-21,14.94-21.07,26.24-.07,11.14,8.66,22.79,19.56,26.09,8.24,2.49,16.14.07,23.93-2,87-23.71,173.41-19.2,259.14,6.46a347.5,347.5,0,0,1,80.52,35.82c11,6.65,22.1,6.37,32.27-1.73,9.46-7.53,11.28-17.9,8.45-29-2.4-9.45-10.13-14.29-18.09-18.84C623.41,486.67,540.86,468.85,454,468.1Zm221.28,188c-.43-9.24-4.43-15.91-12.66-20.78A365.36,365.36,0,0,0,589.37,602c-60.77-19.74-123.06-24.2-186.25-17.31a614.91,614.91,0,0,0-75.73,12.8c-13.58,3.23-21.19,14.75-18.25,26.44,3,12,14.82,18.58,28.12,15.88,14.21-2.88,28.37-6.09,42.67-8.32,61.95-9.62,123.48-9.42,184.29,8.1C591.44,647.45,617,659,641.48,673,657.25,682.1,674.78,673,675.31,656.14Z" transform="translate(-162 -162)"/></svg>