<svg id="Layer_1" data-name="Layer 1" xmlns="http://www.w3.org/2000/svg" viewBox="0 0 700 490.18"><defs><style>.cls-1{fill:#fff;}</style></defs><path class="cls-1" d="M511.67,757.09c-57.75-.77-117.55-1.19-177.29-4.55-25.29-1.43-50.52-3.34-75.68-6.31-36-4.26-63.27-20.83-78.52-54.66-6-13.2-7.91-27.47-9.85-41.64-7.43-54.36-9.12-109-8-163.79.79-39.85,3.06-79.63,9-119.12,3.44-22.89,9.86-44.34,26.56-61.52,16.12-16.58,35.87-25,58.55-27.86,46-5.85,92.23-7.54,138.47-8.9,44.92-1.32,89.86-2.13,134.8-1.73,50.18.45,100.35,1.31,150.47,3.83,29.83,1.51,59.63,3.53,89.26,7.78,45.09,6.47,73.28,33.83,81.33,78.86,6.17,34.49,8.65,69.27,10.19,104.2a1183.26,1183.26,0,0,1-1.3,125.64c-1.92,30.8-4.24,61.62-11.87,91.7-9.13,36-37.15,60.77-74,66.2-32.63,4.81-65.49,6.59-98.38,8.17C621.5,756,567.6,756.39,511.67,757.09Zm112.5-244.93L442.44,407.27V616.61Z" transform="translate(-162 -266.91)"/></svg>